<svg xmlns="http://www.w3.org/2000/svg" xmlns:xlink="http://www.w3.org/1999/xlink" width="500" zoomAndPan="magnify" viewBox="0 0 375 374.999991" height="500" preserveAspectRatio="xMidYMid meet" version="1.0"><defs><clipPath id="3e0eff7238"><path d="M 28.167969 98.40625 L 346.484375 98.40625 L 346.484375 275.800781 L 28.167969 275.800781 Z M 28.167969 98.40625 " clip-rule="nonzero"/></clipPath><clipPath id="7d9774cf69"><path d="M 32.910156 174.589844 L 40 174.589844 L 40 182 L 32.910156 182 Z M 32.910156 174.589844 " clip-rule="nonzero"/></clipPath><clipPath id="b899500244"><path d="M 52 174.589844 L 59 174.589844 L 59 182 L 52 182 Z M 52 174.589844 " clip-rule="nonzero"/></clipPath><clipPath id="b0f527dae8"><path d="M 32.910156 193 L 40 193 L 40 201 L 32.910156 201 Z M 32.910156 193 " clip-rule="nonzero"/></clipPath><clipPath id="5e42c2f138"><path d="M 104.640625 245.699219 L 129.507812 245.699219 L 129.507812 270.566406 L 104.640625 270.566406 Z M 104.640625 245.699219 " clip-rule="nonzero"/></clipPath><clipPath id="3e7ef7cbd9"><path d="M 107.53125 102.738281 L 127.425781 102.738281 L 127.425781 127.605469 L 107.53125 127.605469 Z M 107.53125 102.738281 " clip-rule="nonzero"/></clipPath><clipPath id="6327680d1a"><path d="M 104.640625 245.699219 L 129.507812 245.699219 L 129.507812 270.566406 L 104.640625 270.566406 Z M 104.640625 245.699219 " clip-rule="nonzero"/></clipPath><clipPath id="d09318c290"><path d="M 104.640625 245.699219 L 129.507812 245.699219 L 129.507812 270.566406 L 104.640625 270.566406 Z M 104.640625 245.699219 " clip-rule="nonzero"/></clipPath><clipPath id="ee34c28e97"><path d="M 104.640625 245.699219 L 129.507812 245.699219 L 129.507812 270.566406 L 104.640625 270.566406 Z M 104.640625 245.699219 " clip-rule="nonzero"/></clipPath></defs><g clip-path="url(#3e0eff7238)"><path fill="#0097b2" d="M 63.351562 204.054688 L 63.351562 168.871094 L 28.167969 168.871094 L 28.167969 204.054688 Z M 100.378906 133.609375 L 135.5625 133.609375 L 135.5625 98.425781 L 100.378906 98.425781 Z M 170.601562 133.609375 L 257.753906 133.609375 C 287.417969 133.609375 311.636719 157.902344 311.636719 187.492188 C 311.636719 217.15625 287.417969 241.375 257.753906 241.375 L 205.859375 241.375 L 205.859375 168.871094 L 99.347656 168.871094 L 99.347656 204.054688 L 170.601562 204.054688 L 170.601562 276.558594 L 257.753906 276.558594 C 306.777344 276.558594 346.820312 236.515625 346.820312 187.492188 C 346.820312 138.542969 306.777344 98.425781 257.753906 98.425781 L 170.601562 98.425781 Z M 135.5625 276.558594 L 135.5625 241.375 L 100.378906 241.375 L 100.378906 276.558594 Z M 135.5625 276.558594 " fill-opacity="1" fill-rule="evenodd"/></g><path fill="#eceff1" d="M 39.824219 178.734375 L 51.800781 178.734375 C 52.054688 178.734375 52.273438 178.824219 52.453125 179.003906 C 52.632812 179.183594 52.722656 179.402344 52.722656 179.65625 L 52.722656 195.320312 C 52.722656 195.574219 52.632812 195.792969 52.453125 195.972656 C 52.273438 196.152344 52.054688 196.242188 51.800781 196.242188 L 39.824219 196.242188 C 39.566406 196.242188 39.351562 196.152344 39.171875 195.972656 C 38.992188 195.792969 38.902344 195.574219 38.902344 195.320312 L 38.902344 179.65625 C 38.902344 179.402344 38.992188 179.183594 39.171875 179.003906 C 39.351562 178.824219 39.566406 178.734375 39.824219 178.734375 Z M 39.824219 178.734375 " fill-opacity="1" fill-rule="nonzero"/><g clip-path="url(#7d9774cf69)"><path fill="#ffffff" d="M 39.363281 175.507812 C 39.363281 176.019531 38.949219 176.429688 38.441406 176.429688 L 34.753906 176.429688 L 34.753906 180.117188 C 34.753906 180.625 34.339844 181.039062 33.832031 181.039062 C 33.324219 181.039062 32.910156 180.625 32.910156 180.117188 L 32.910156 176.429688 C 32.910156 175.414062 33.738281 174.589844 34.753906 174.589844 L 38.441406 174.589844 C 38.949219 174.589844 39.363281 175 39.363281 175.507812 Z M 39.363281 175.507812 " fill-opacity="1" fill-rule="nonzero"/></g><g clip-path="url(#b899500244)"><path fill="#ffffff" d="M 57.789062 181.039062 C 57.28125 181.039062 56.871094 180.625 56.871094 180.117188 L 56.871094 176.429688 L 53.183594 176.429688 C 52.675781 176.429688 52.261719 176.019531 52.261719 175.507812 C 52.261719 175 52.675781 174.589844 53.183594 174.589844 L 56.871094 174.589844 C 57.886719 174.589844 58.710938 175.414062 58.710938 176.429688 L 58.710938 180.117188 C 58.710938 180.625 58.300781 181.039062 57.789062 181.039062 Z M 57.789062 181.039062 " fill-opacity="1" fill-rule="nonzero"/></g><path fill="#ffffff" d="M 52.261719 199.46875 C 52.261719 198.957031 52.675781 198.546875 53.183594 198.546875 L 56.871094 198.546875 L 56.871094 194.859375 C 56.871094 194.351562 57.28125 193.9375 57.789062 193.9375 C 58.300781 193.9375 58.710938 194.351562 58.710938 194.859375 L 58.710938 198.546875 C 58.710938 199.5625 57.886719 200.390625 56.871094 200.390625 L 53.183594 200.390625 C 52.675781 200.390625 52.261719 199.976562 52.261719 199.46875 Z M 52.261719 199.46875 " fill-opacity="1" fill-rule="nonzero"/><g clip-path="url(#b0f527dae8)"><path fill="#ffffff" d="M 33.832031 193.9375 C 34.339844 193.9375 34.753906 194.351562 34.753906 194.859375 L 34.753906 198.546875 L 38.441406 198.546875 C 38.949219 198.546875 39.363281 198.957031 39.363281 199.46875 C 39.363281 199.976562 38.949219 200.390625 38.441406 200.390625 L 34.753906 200.390625 C 33.738281 200.390625 32.910156 199.5625 32.910156 198.546875 L 32.910156 194.859375 C 32.910156 194.351562 33.324219 193.9375 33.832031 193.9375 Z M 33.832031 193.9375 " fill-opacity="1" fill-rule="nonzero"/></g><path fill="#546e7a" d="M 49.957031 185.070312 L 41.664062 185.070312 C 41.472656 185.070312 41.320312 184.914062 41.320312 184.722656 C 41.320312 184.535156 41.472656 184.378906 41.664062 184.378906 L 49.957031 184.378906 C 50.148438 184.378906 50.304688 184.535156 50.304688 184.722656 C 50.304688 184.914062 50.148438 185.070312 49.957031 185.070312 Z M 49.957031 185.070312 " fill-opacity="1" fill-rule="nonzero"/><path fill="#546e7a" d="M 49.957031 182.304688 L 41.664062 182.304688 C 41.472656 182.304688 41.320312 182.152344 41.320312 181.960938 C 41.320312 181.769531 41.472656 181.613281 41.664062 181.613281 L 49.957031 181.613281 C 50.148438 181.613281 50.304688 181.769531 50.304688 181.960938 C 50.304688 182.152344 50.148438 182.304688 49.957031 182.304688 Z M 49.957031 182.304688 " fill-opacity="1" fill-rule="nonzero"/><path fill="#546e7a" d="M 49.957031 190.597656 L 41.664062 190.597656 C 41.472656 190.597656 41.320312 190.445312 41.320312 190.253906 C 41.320312 190.0625 41.472656 189.90625 41.664062 189.90625 L 49.957031 189.90625 C 50.148438 189.90625 50.304688 190.0625 50.304688 190.253906 C 50.304688 190.445312 50.148438 190.597656 49.957031 190.597656 Z M 49.957031 190.597656 " fill-opacity="1" fill-rule="nonzero"/><path fill="#546e7a" d="M 49.957031 193.363281 L 41.664062 193.363281 C 41.472656 193.363281 41.320312 193.207031 41.320312 193.015625 C 41.320312 192.828125 41.472656 192.671875 41.664062 192.671875 L 49.957031 192.671875 C 50.148438 192.671875 50.304688 192.828125 50.304688 193.015625 C 50.304688 193.207031 50.148438 193.363281 49.957031 193.363281 Z M 49.957031 193.363281 " fill-opacity="1" fill-rule="nonzero"/><path fill="#ffffff" d="M 35.675781 186.566406 L 55.949219 186.566406 C 56.074219 186.566406 56.183594 186.613281 56.273438 186.703125 C 56.363281 186.792969 56.410156 186.902344 56.410156 187.027344 L 56.410156 187.949219 C 56.410156 188.078125 56.363281 188.183594 56.273438 188.273438 C 56.183594 188.363281 56.074219 188.410156 55.949219 188.410156 L 35.675781 188.410156 C 35.546875 188.410156 35.441406 188.363281 35.351562 188.273438 C 35.261719 188.183594 35.214844 188.078125 35.214844 187.949219 L 35.214844 187.027344 C 35.214844 186.902344 35.261719 186.792969 35.351562 186.703125 C 35.441406 186.613281 35.546875 186.566406 35.675781 186.566406 Z M 35.675781 186.566406 " fill-opacity="1" fill-rule="nonzero"/><g clip-path="url(#5e42c2f138)"><path fill="#eceff1" d="M 128.574219 270.492188 L 106.347656 270.492188 C 105.878906 270.492188 105.496094 270.105469 105.496094 269.636719 L 105.496094 249.972656 L 129.429688 249.972656 L 129.429688 269.636719 C 129.429688 270.105469 129.046875 270.492188 128.574219 270.492188 Z M 106.347656 246.554688 L 128.574219 246.554688 C 129.046875 246.554688 129.429688 246.9375 129.429688 247.410156 L 129.429688 249.117188 L 105.496094 249.117188 L 105.496094 247.410156 C 105.496094 246.9375 105.878906 246.554688 106.347656 246.554688 Z M 128.574219 245.699219 L 106.347656 245.699219 C 105.40625 245.699219 104.640625 246.464844 104.640625 247.410156 L 104.640625 269.636719 C 104.640625 270.578125 105.40625 271.34375 106.347656 271.34375 L 128.574219 271.34375 C 129.519531 271.34375 130.285156 270.578125 130.285156 269.636719 L 130.285156 247.410156 C 130.285156 246.464844 129.519531 245.699219 128.574219 245.699219 " fill-opacity="1" fill-rule="nonzero"/></g><path fill="#eceff1" d="M 108.488281 253.394531 L 108.488281 252.109375 L 126.4375 252.109375 L 126.4375 253.394531 Z M 126.4375 251.257812 L 108.488281 251.257812 C 108.015625 251.257812 107.632812 251.640625 107.632812 252.109375 L 107.632812 253.394531 C 107.632812 253.863281 108.015625 254.25 108.488281 254.25 L 126.4375 254.25 C 126.910156 254.25 127.292969 253.863281 127.292969 253.394531 L 127.292969 252.109375 C 127.292969 251.640625 126.910156 251.257812 126.4375 251.257812 " fill-opacity="1" fill-rule="nonzero"/><path fill="#eceff1" d="M 108.488281 264.933594 L 108.488281 256.386719 L 126.4375 256.386719 L 126.441406 264.933594 Z M 126.4375 255.53125 L 108.488281 255.53125 C 108.015625 255.53125 107.632812 255.914062 107.632812 256.386719 L 107.632812 264.933594 C 107.632812 265.40625 108.015625 265.789062 108.488281 265.789062 L 126.4375 265.789062 C 126.910156 265.789062 127.292969 265.40625 127.292969 264.933594 L 127.292969 256.386719 C 127.292969 255.914062 126.910156 255.53125 126.4375 255.53125 " fill-opacity="1" fill-rule="nonzero"/><path fill="#eceff1" d="M 118.316406 268.351562 C 118.082031 268.351562 117.890625 268.160156 117.890625 267.925781 C 117.890625 267.691406 118.082031 267.5 118.316406 267.5 C 118.554688 267.5 118.746094 267.691406 118.746094 267.925781 C 118.746094 268.160156 118.554688 268.351562 118.316406 268.351562 Z M 118.316406 266.644531 C 117.609375 266.644531 117.035156 267.21875 117.035156 267.925781 C 117.035156 268.632812 117.609375 269.207031 118.316406 269.207031 C 119.023438 269.207031 119.597656 268.632812 119.597656 267.925781 C 119.597656 267.21875 119.023438 266.644531 118.316406 266.644531 " fill-opacity="1" fill-rule="nonzero"/><path fill="#eceff1" d="M 125.582031 268.351562 L 122.164062 268.351562 C 121.929688 268.351562 121.738281 268.160156 121.738281 267.925781 C 121.738281 267.691406 121.929688 267.5 122.164062 267.5 L 125.582031 267.5 C 125.820312 267.5 126.011719 267.691406 126.011719 267.925781 C 126.011719 268.160156 125.820312 268.351562 125.582031 268.351562 Z M 125.582031 266.644531 L 122.164062 266.644531 C 121.457031 266.644531 120.882812 267.21875 120.882812 267.925781 C 120.882812 268.632812 121.457031 269.207031 122.164062 269.207031 L 125.582031 269.207031 C 126.292969 269.207031 126.867188 268.632812 126.867188 267.925781 C 126.867188 267.21875 126.292969 266.644531 125.582031 266.644531 " fill-opacity="1" fill-rule="nonzero"/><path fill="#eceff1" d="M 106.777344 248.265625 C 107.011719 248.265625 107.203125 248.070312 107.203125 247.835938 L 107.203125 247.828125 C 107.203125 247.59375 107.011719 247.40625 106.777344 247.40625 C 106.542969 247.40625 106.347656 247.601562 106.347656 247.835938 C 106.347656 248.070312 106.542969 248.265625 106.777344 248.265625 " fill-opacity="1" fill-rule="nonzero"/><path fill="#eceff1" d="M 108.488281 248.265625 C 108.722656 248.265625 108.914062 248.070312 108.914062 247.835938 L 108.914062 247.828125 C 108.914062 247.59375 108.722656 247.40625 108.488281 247.40625 C 108.25 247.40625 108.058594 247.601562 108.058594 247.835938 C 108.058594 248.070312 108.25 248.265625 108.488281 248.265625 " fill-opacity="1" fill-rule="nonzero"/><path fill="#eceff1" d="M 110.195312 248.265625 C 110.433594 248.265625 110.625 248.070312 110.625 247.835938 L 110.625 247.828125 C 110.625 247.59375 110.433594 247.40625 110.195312 247.40625 C 109.960938 247.40625 109.769531 247.601562 109.769531 247.835938 C 109.769531 248.070312 109.960938 248.265625 110.195312 248.265625 " fill-opacity="1" fill-rule="nonzero"/><path fill="#eceff1" d="M 113.617188 248.265625 L 126.4375 248.265625 C 126.675781 248.265625 126.867188 248.070312 126.867188 247.835938 C 126.867188 247.601562 126.675781 247.410156 126.4375 247.410156 L 113.617188 247.410156 C 113.378906 247.410156 113.1875 247.601562 113.1875 247.835938 C 113.1875 248.070312 113.378906 248.265625 113.617188 248.265625 " fill-opacity="1" fill-rule="nonzero"/><g clip-path="url(#3e7ef7cbd9)"><path fill="#eceff1" d="M 121.269531 102.765625 L 110.863281 102.765625 C 109.023438 102.765625 107.527344 104.261719 107.527344 106.101562 L 107.527344 124.21875 C 107.527344 126.058594 109.023438 127.554688 110.863281 127.554688 L 124.066406 127.554688 C 125.90625 127.554688 127.402344 126.058594 127.402344 124.21875 L 127.402344 109.617188 Z M 121.757812 105.945312 L 124.558594 109.074219 L 121.757812 109.074219 Z M 124.066406 125.796875 L 110.863281 125.796875 C 109.992188 125.796875 109.285156 125.089844 109.285156 124.21875 L 109.285156 106.101562 C 109.285156 105.230469 109.992188 104.523438 110.863281 104.523438 L 120 104.523438 L 120 110.832031 L 125.644531 110.832031 L 125.644531 124.21875 C 125.644531 125.089844 124.9375 125.796875 124.066406 125.796875 Z M 124.066406 125.796875 " fill-opacity="1" fill-rule="nonzero"/></g><path fill="#eceff1" d="M 111.171875 120.535156 L 123.757812 120.535156 L 123.757812 122.296875 L 111.171875 122.296875 Z M 111.171875 120.535156 " fill-opacity="1" fill-rule="nonzero"/><path fill="#eceff1" d="M 111.171875 116.714844 L 123.757812 116.714844 L 123.757812 118.472656 L 111.171875 118.472656 Z M 111.171875 116.714844 " fill-opacity="1" fill-rule="nonzero"/><path fill="#eceff1" d="M 111.171875 112.894531 L 123.757812 112.894531 L 123.757812 114.65625 L 111.171875 114.65625 Z M 111.171875 112.894531 " fill-opacity="1" fill-rule="nonzero"/><g clip-path="url(#6327680d1a)"><path fill="#eceff1" d="M 128.574219 270.492188 L 106.347656 270.492188 C 105.878906 270.492188 105.496094 270.105469 105.496094 269.636719 L 105.496094 249.972656 L 129.429688 249.972656 L 129.429688 269.636719 C 129.429688 270.105469 129.046875 270.492188 128.574219 270.492188 Z M 106.347656 246.554688 L 128.574219 246.554688 C 129.046875 246.554688 129.429688 246.9375 129.429688 247.410156 L 129.429688 249.117188 L 105.496094 249.117188 L 105.496094 247.410156 C 105.496094 246.9375 105.878906 246.554688 106.347656 246.554688 Z M 128.574219 245.699219 L 106.347656 245.699219 C 105.40625 245.699219 104.640625 246.464844 104.640625 247.410156 L 104.640625 269.636719 C 104.640625 270.578125 105.40625 271.34375 106.347656 271.34375 L 128.574219 271.34375 C 129.519531 271.34375 130.285156 270.578125 130.285156 269.636719 L 130.285156 247.410156 C 130.285156 246.464844 129.519531 245.699219 128.574219 245.699219 " fill-opacity="1" fill-rule="nonzero"/></g><path fill="#eceff1" d="M 108.488281 253.394531 L 108.488281 252.109375 L 126.4375 252.109375 L 126.4375 253.394531 Z M 126.4375 251.257812 L 108.488281 251.257812 C 108.015625 251.257812 107.632812 251.640625 107.632812 252.109375 L 107.632812 253.394531 C 107.632812 253.863281 108.015625 254.25 108.488281 254.25 L 126.4375 254.25 C 126.910156 254.25 127.292969 253.863281 127.292969 253.394531 L 127.292969 252.109375 C 127.292969 251.640625 126.910156 251.257812 126.4375 251.257812 " fill-opacity="1" fill-rule="nonzero"/><path fill="#eceff1" d="M 108.488281 264.933594 L 108.488281 256.386719 L 126.4375 256.386719 L 126.441406 264.933594 Z M 126.4375 255.53125 L 108.488281 255.53125 C 108.015625 255.53125 107.632812 255.914062 107.632812 256.386719 L 107.632812 264.933594 C 107.632812 265.40625 108.015625 265.789062 108.488281 265.789062 L 126.4375 265.789062 C 126.910156 265.789062 127.292969 265.40625 127.292969 264.933594 L 127.292969 256.386719 C 127.292969 255.914062 126.910156 255.53125 126.4375 255.53125 " fill-opacity="1" fill-rule="nonzero"/><path fill="#eceff1" d="M 118.316406 268.351562 C 118.082031 268.351562 117.890625 268.160156 117.890625 267.925781 C 117.890625 267.691406 118.082031 267.5 118.316406 267.5 C 118.554688 267.5 118.746094 267.691406 118.746094 267.925781 C 118.746094 268.160156 118.554688 268.351562 118.316406 268.351562 Z M 118.316406 266.644531 C 117.609375 266.644531 117.035156 267.21875 117.035156 267.925781 C 117.035156 268.632812 117.609375 269.207031 118.316406 269.207031 C 119.023438 269.207031 119.597656 268.632812 119.597656 267.925781 C 119.597656 267.21875 119.023438 266.644531 118.316406 266.644531 " fill-opacity="1" fill-rule="nonzero"/><path fill="#eceff1" d="M 125.582031 268.351562 L 122.164062 268.351562 C 121.929688 268.351562 121.738281 268.160156 121.738281 267.925781 C 121.738281 267.691406 121.929688 267.5 122.164062 267.5 L 125.582031 267.5 C 125.820312 267.5 126.011719 267.691406 126.011719 267.925781 C 126.011719 268.160156 125.820312 268.351562 125.582031 268.351562 Z M 125.582031 266.644531 L 122.164062 266.644531 C 121.457031 266.644531 120.882812 267.21875 120.882812 267.925781 C 120.882812 268.632812 121.457031 269.207031 122.164062 269.207031 L 125.582031 269.207031 C 126.292969 269.207031 126.867188 268.632812 126.867188 267.925781 C 126.867188 267.21875 126.292969 266.644531 125.582031 266.644531 " fill-opacity="1" fill-rule="nonzero"/><path fill="#eceff1" d="M 106.777344 248.265625 C 107.011719 248.265625 107.203125 248.070312 107.203125 247.835938 L 107.203125 247.828125 C 107.203125 247.59375 107.011719 247.40625 106.777344 247.40625 C 106.542969 247.40625 106.347656 247.601562 106.347656 247.835938 C 106.347656 248.070312 106.542969 248.265625 106.777344 248.265625 " fill-opacity="1" fill-rule="nonzero"/><path fill="#eceff1" d="M 108.488281 248.265625 C 108.722656 248.265625 108.914062 248.070312 108.914062 247.835938 L 108.914062 247.828125 C 108.914062 247.59375 108.722656 247.40625 108.488281 247.40625 C 108.25 247.40625 108.058594 247.601562 108.058594 247.835938 C 108.058594 248.070312 108.25 248.265625 108.488281 248.265625 " fill-opacity="1" fill-rule="nonzero"/><path fill="#eceff1" d="M 110.195312 248.265625 C 110.433594 248.265625 110.625 248.070312 110.625 247.835938 L 110.625 247.828125 C 110.625 247.59375 110.433594 247.40625 110.195312 247.40625 C 109.960938 247.40625 109.769531 247.601562 109.769531 247.835938 C 109.769531 248.070312 109.960938 248.265625 110.195312 248.265625 " fill-opacity="1" fill-rule="nonzero"/><path fill="#eceff1" d="M 113.617188 248.265625 L 126.4375 248.265625 C 126.675781 248.265625 126.867188 248.070312 126.867188 247.835938 C 126.867188 247.601562 126.675781 247.410156 126.4375 247.410156 L 113.617188 247.410156 C 113.378906 247.410156 113.1875 247.601562 113.1875 247.835938 C 113.1875 248.070312 113.378906 248.265625 113.617188 248.265625 " fill-opacity="1" fill-rule="nonzero"/><g clip-path="url(#d09318c290)"><path fill="#eceff1" d="M 128.574219 270.492188 L 106.347656 270.492188 C 105.878906 270.492188 105.496094 270.105469 105.496094 269.636719 L 105.496094 249.972656 L 129.429688 249.972656 L 129.429688 269.636719 C 129.429688 270.105469 129.046875 270.492188 128.574219 270.492188 Z M 106.347656 246.554688 L 128.574219 246.554688 C 129.046875 246.554688 129.429688 246.9375 129.429688 247.410156 L 129.429688 249.117188 L 105.496094 249.117188 L 105.496094 247.410156 C 105.496094 246.9375 105.878906 246.554688 106.347656 246.554688 Z M 128.574219 245.699219 L 106.347656 245.699219 C 105.40625 245.699219 104.640625 246.464844 104.640625 247.410156 L 104.640625 269.636719 C 104.640625 270.578125 105.40625 271.34375 106.347656 271.34375 L 128.574219 271.34375 C 129.519531 271.34375 130.285156 270.578125 130.285156 269.636719 L 130.285156 247.410156 C 130.285156 246.464844 129.519531 245.699219 128.574219 245.699219 " fill-opacity="1" fill-rule="nonzero"/></g><path fill="#eceff1" d="M 108.488281 253.394531 L 108.488281 252.109375 L 126.4375 252.109375 L 126.4375 253.394531 Z M 126.4375 251.257812 L 108.488281 251.257812 C 108.015625 251.257812 107.632812 251.640625 107.632812 252.109375 L 107.632812 253.394531 C 107.632812 253.863281 108.015625 254.25 108.488281 254.25 L 126.4375 254.25 C 126.910156 254.25 127.292969 253.863281 127.292969 253.394531 L 127.292969 252.109375 C 127.292969 251.640625 126.910156 251.257812 126.4375 251.257812 " fill-opacity="1" fill-rule="nonzero"/><path fill="#eceff1" d="M 108.488281 264.933594 L 108.488281 256.386719 L 126.4375 256.386719 L 126.441406 264.933594 Z M 126.4375 255.53125 L 108.488281 255.53125 C 108.015625 255.53125 107.632812 255.914062 107.632812 256.386719 L 107.632812 264.933594 C 107.632812 265.40625 108.015625 265.789062 108.488281 265.789062 L 126.4375 265.789062 C 126.910156 265.789062 127.292969 265.40625 127.292969 264.933594 L 127.292969 256.386719 C 127.292969 255.914062 126.910156 255.53125 126.4375 255.53125 " fill-opacity="1" fill-rule="nonzero"/><path fill="#eceff1" d="M 118.316406 268.351562 C 118.082031 268.351562 117.890625 268.160156 117.890625 267.925781 C 117.890625 267.691406 118.082031 267.5 118.316406 267.5 C 118.554688 267.5 118.746094 267.691406 118.746094 267.925781 C 118.746094 268.160156 118.554688 268.351562 118.316406 268.351562 Z M 118.316406 266.644531 C 117.609375 266.644531 117.035156 267.21875 117.035156 267.925781 C 117.035156 268.632812 117.609375 269.207031 118.316406 269.207031 C 119.023438 269.207031 119.597656 268.632812 119.597656 267.925781 C 119.597656 267.21875 119.023438 266.644531 118.316406 266.644531 " fill-opacity="1" fill-rule="nonzero"/><path fill="#eceff1" d="M 125.582031 268.351562 L 122.164062 268.351562 C 121.929688 268.351562 121.738281 268.160156 121.738281 267.925781 C 121.738281 267.691406 121.929688 267.5 122.164062 267.5 L 125.582031 267.5 C 125.820312 267.5 126.011719 267.691406 126.011719 267.925781 C 126.011719 268.160156 125.820312 268.351562 125.582031 268.351562 Z M 125.582031 266.644531 L 122.164062 266.644531 C 121.457031 266.644531 120.882812 267.21875 120.882812 267.925781 C 120.882812 268.632812 121.457031 269.207031 122.164062 269.207031 L 125.582031 269.207031 C 126.292969 269.207031 126.867188 268.632812 126.867188 267.925781 C 126.867188 267.21875 126.292969 266.644531 125.582031 266.644531 " fill-opacity="1" fill-rule="nonzero"/><path fill="#eceff1" d="M 106.777344 248.265625 C 107.011719 248.265625 107.203125 248.070312 107.203125 247.835938 L 107.203125 247.828125 C 107.203125 247.59375 107.011719 247.40625 106.777344 247.40625 C 106.542969 247.40625 106.347656 247.601562 106.347656 247.835938 C 106.347656 248.070312 106.542969 248.265625 106.777344 248.265625 " fill-opacity="1" fill-rule="nonzero"/><path fill="#eceff1" d="M 108.488281 248.265625 C 108.722656 248.265625 108.914062 248.070312 108.914062 247.835938 L 108.914062 247.828125 C 108.914062 247.59375 108.722656 247.40625 108.488281 247.40625 C 108.25 247.40625 108.058594 247.601562 108.058594 247.835938 C 108.058594 248.070312 108.25 248.265625 108.488281 248.265625 " fill-opacity="1" fill-rule="nonzero"/><path fill="#eceff1" d="M 110.195312 248.265625 C 110.433594 248.265625 110.625 248.070312 110.625 247.835938 L 110.625 247.828125 C 110.625 247.59375 110.433594 247.40625 110.195312 247.40625 C 109.960938 247.40625 109.769531 247.601562 109.769531 247.835938 C 109.769531 248.070312 109.960938 248.265625 110.195312 248.265625 " fill-opacity="1" fill-rule="nonzero"/><path fill="#eceff1" d="M 113.617188 248.265625 L 126.4375 248.265625 C 126.675781 248.265625 126.867188 248.070312 126.867188 247.835938 C 126.867188 247.601562 126.675781 247.410156 126.4375 247.410156 L 113.617188 247.410156 C 113.378906 247.410156 113.1875 247.601562 113.1875 247.835938 C 113.1875 248.070312 113.378906 248.265625 113.617188 248.265625 " fill-opacity="1" fill-rule="nonzero"/><g clip-path="url(#ee34c28e97)"><path fill="#eceff1" d="M 128.574219 270.492188 L 106.347656 270.492188 C 105.878906 270.492188 105.496094 270.105469 105.496094 269.636719 L 105.496094 249.972656 L 129.429688 249.972656 L 129.429688 269.636719 C 129.429688 270.105469 129.046875 270.492188 128.574219 270.492188 Z M 106.347656 246.554688 L 128.574219 246.554688 C 129.046875 246.554688 129.429688 246.9375 129.429688 247.410156 L 129.429688 249.117188 L 105.496094 249.117188 L 105.496094 247.410156 C 105.496094 246.9375 105.878906 246.554688 106.347656 246.554688 Z M 128.574219 245.699219 L 106.347656 245.699219 C 105.40625 245.699219 104.640625 246.464844 104.640625 247.410156 L 104.640625 269.636719 C 104.640625 270.578125 105.40625 271.34375 106.347656 271.34375 L 128.574219 271.34375 C 129.519531 271.34375 130.285156 270.578125 130.285156 269.636719 L 130.285156 247.410156 C 130.285156 246.464844 129.519531 245.699219 128.574219 245.699219 " fill-opacity="1" fill-rule="nonzero"/></g><path fill="#eceff1" d="M 108.488281 253.394531 L 108.488281 252.109375 L 126.4375 252.109375 L 126.4375 253.394531 Z M 126.4375 251.257812 L 108.488281 251.257812 C 108.015625 251.257812 107.632812 251.640625 107.632812 252.109375 L 107.632812 253.394531 C 107.632812 253.863281 108.015625 254.25 108.488281 254.25 L 126.4375 254.25 C 126.910156 254.25 127.292969 253.863281 127.292969 253.394531 L 127.292969 252.109375 C 127.292969 251.640625 126.910156 251.257812 126.4375 251.257812 " fill-opacity="1" fill-rule="nonzero"/><path fill="#eceff1" d="M 108.488281 264.933594 L 108.488281 256.386719 L 126.4375 256.386719 L 126.441406 264.933594 Z M 126.4375 255.53125 L 108.488281 255.53125 C 108.015625 255.53125 107.632812 255.914062 107.632812 256.386719 L 107.632812 264.933594 C 107.632812 265.40625 108.015625 265.789062 108.488281 265.789062 L 126.4375 265.789062 C 126.910156 265.789062 127.292969 265.40625 127.292969 264.933594 L 127.292969 256.386719 C 127.292969 255.914062 126.910156 255.53125 126.4375 255.53125 " fill-opacity="1" fill-rule="nonzero"/><path fill="#eceff1" d="M 118.316406 268.351562 C 118.082031 268.351562 117.890625 268.160156 117.890625 267.925781 C 117.890625 267.691406 118.082031 267.5 118.316406 267.5 C 118.554688 267.5 118.746094 267.691406 118.746094 267.925781 C 118.746094 268.160156 118.554688 268.351562 118.316406 268.351562 Z M 118.316406 266.644531 C 117.609375 266.644531 117.035156 267.21875 117.035156 267.925781 C 117.035156 268.632812 117.609375 269.207031 118.316406 269.207031 C 119.023438 269.207031 119.597656 268.632812 119.597656 267.925781 C 119.597656 267.21875 119.023438 266.644531 118.316406 266.644531 " fill-opacity="1" fill-rule="nonzero"/><path fill="#eceff1" d="M 125.582031 268.351562 L 122.164062 268.351562 C 121.929688 268.351562 121.738281 268.160156 121.738281 267.925781 C 121.738281 267.691406 121.929688 267.5 122.164062 267.5 L 125.582031 267.5 C 125.820312 267.5 126.011719 267.691406 126.011719 267.925781 C 126.011719 268.160156 125.820312 268.351562 125.582031 268.351562 Z M 125.582031 266.644531 L 122.164062 266.644531 C 121.457031 266.644531 120.882812 267.21875 120.882812 267.925781 C 120.882812 268.632812 121.457031 269.207031 122.164062 269.207031 L 125.582031 269.207031 C 126.292969 269.207031 126.867188 268.632812 126.867188 267.925781 C 126.867188 267.21875 126.292969 266.644531 125.582031 266.644531 " fill-opacity="1" fill-rule="nonzero"/><path fill="#eceff1" d="M 106.777344 248.265625 C 107.011719 248.265625 107.203125 248.070312 107.203125 247.835938 L 107.203125 247.828125 C 107.203125 247.59375 107.011719 247.40625 106.777344 247.40625 C 106.542969 247.40625 106.347656 247.601562 106.347656 247.835938 C 106.347656 248.070312 106.542969 248.265625 106.777344 248.265625 " fill-opacity="1" fill-rule="nonzero"/><path fill="#eceff1" d="M 108.488281 248.265625 C 108.722656 248.265625 108.914062 248.070312 108.914062 247.835938 L 108.914062 247.828125 C 108.914062 247.59375 108.722656 247.40625 108.488281 247.40625 C 108.25 247.40625 108.058594 247.601562 108.058594 247.835938 C 108.058594 248.070312 108.25 248.265625 108.488281 248.265625 " fill-opacity="1" fill-rule="nonzero"/><path fill="#eceff1" d="M 110.195312 248.265625 C 110.433594 248.265625 110.625 248.070312 110.625 247.835938 L 110.625 247.828125 C 110.625 247.59375 110.433594 247.40625 110.195312 247.40625 C 109.960938 247.40625 109.769531 247.601562 109.769531 247.835938 C 109.769531 248.070312 109.960938 248.265625 110.195312 248.265625 " fill-opacity="1" fill-rule="nonzero"/><path fill="#eceff1" d="M 113.617188 248.265625 L 126.4375 248.265625 C 126.675781 248.265625 126.867188 248.070312 126.867188 247.835938 C 126.867188 247.601562 126.675781 247.410156 126.4375 247.410156 L 113.617188 247.410156 C 113.378906 247.410156 113.1875 247.601562 113.1875 247.835938 C 113.1875 248.070312 113.378906 248.265625 113.617188 248.265625 " fill-opacity="1" fill-rule="nonzero"/></svg>