<svg xmlns="http://www.w3.org/2000/svg" xmlns:xlink="http://www.w3.org/1999/xlink" width="500" zoomAndPan="magnify" viewBox="0 0 375 374.999991" height="500" preserveAspectRatio="xMidYMid meet" version="1.0"><defs><g/><clipPath id="ae74594a28"><path d="M 115.421875 103.28125 L 259.421875 103.28125 L 259.421875 183.53125 L 115.421875 183.53125 Z M 115.421875 103.28125 " clip-rule="nonzero"/></clipPath><clipPath id="78034d3122"><path d="M 117.566406 137.746094 L 121 137.746094 L 121 141 L 117.566406 141 Z M 117.566406 137.746094 " clip-rule="nonzero"/></clipPath><clipPath id="ce1ed35e59"><path d="M 126 137.746094 L 129.566406 137.746094 L 129.566406 141 L 126 141 Z M 126 137.746094 " clip-rule="nonzero"/></clipPath><clipPath id="bc5b66ade9"><path d="M 126 146 L 129.566406 146 L 129.566406 149.746094 L 126 149.746094 Z M 126 146 " clip-rule="nonzero"/></clipPath><clipPath id="8cbe561fbb"><path d="M 117.566406 146 L 121 146 L 121 149.746094 L 117.566406 149.746094 Z M 117.566406 146 " clip-rule="nonzero"/></clipPath><clipPath id="58a8e6431a"><path d="M 150.015625 169.914062 L 161.265625 169.914062 L 161.265625 181.164062 L 150.015625 181.164062 Z M 150.015625 169.914062 " clip-rule="nonzero"/></clipPath><clipPath id="f20824d926"><path d="M 150.015625 170 L 152 170 L 152 172 L 150.015625 172 Z M 150.015625 170 " clip-rule="nonzero"/></clipPath><clipPath id="41d427c39a"><path d="M 151.324219 105.242188 L 160.324219 105.242188 L 160.324219 116.492188 L 151.324219 116.492188 Z M 151.324219 105.242188 " clip-rule="nonzero"/></clipPath><clipPath id="41d5a09421"><path d="M 150.015625 169.914062 L 161.265625 169.914062 L 161.265625 181.164062 L 150.015625 181.164062 Z M 150.015625 169.914062 " clip-rule="nonzero"/></clipPath><clipPath id="5f7fbb47c0"><path d="M 150.015625 170 L 152 170 L 152 172 L 150.015625 172 Z M 150.015625 170 " clip-rule="nonzero"/></clipPath><clipPath id="46725f8e75"><path d="M 150.015625 169.914062 L 161.265625 169.914062 L 161.265625 181.164062 L 150.015625 181.164062 Z M 150.015625 169.914062 " clip-rule="nonzero"/></clipPath><clipPath id="97835eb328"><path d="M 150.015625 170 L 152 170 L 152 172 L 150.015625 172 Z M 150.015625 170 " clip-rule="nonzero"/></clipPath><clipPath id="9825855bc7"><path d="M 150.015625 169.914062 L 161.265625 169.914062 L 161.265625 181.164062 L 150.015625 181.164062 Z M 150.015625 169.914062 " clip-rule="nonzero"/></clipPath><clipPath id="83fb284ad9"><path d="M 150.015625 170 L 152 170 L 152 172 L 150.015625 172 Z M 150.015625 170 " clip-rule="nonzero"/></clipPath></defs><g fill="#172323" fill-opacity="1"><g transform="translate(64.305922, 235.172024)"><g><path d="M 24.8125 -13.515625 C 24.8125 -9.191406 23.617188 -5.859375 21.234375 -3.515625 C 18.859375 -1.171875 15.507812 0 11.1875 0 L 2.796875 0 L 2.796875 -25.9375 L 11.78125 -25.9375 C 15.9375 -25.9375 19.144531 -24.867188 21.40625 -22.734375 C 23.675781 -20.609375 24.8125 -17.535156 24.8125 -13.515625 Z M 17.546875 -13.265625 C 17.546875 -15.640625 17.070312 -17.398438 16.125 -18.546875 C 15.1875 -19.703125 13.757812 -20.28125 11.84375 -20.28125 L 9.8125 -20.28125 L 9.8125 -5.75 L 11.375 -5.75 C 13.5 -5.75 15.054688 -6.363281 16.046875 -7.59375 C 17.046875 -8.832031 17.546875 -10.722656 17.546875 -13.265625 Z M 17.546875 -13.265625 "/></g></g></g><g fill="#172323" fill-opacity="1"><g transform="translate(96.046962, 235.172024)"><g><path d="M 27.0625 -13 C 27.0625 -8.632812 25.988281 -5.316406 23.84375 -3.046875 C 21.707031 -0.773438 18.578125 0.359375 14.453125 0.359375 C 10.390625 0.359375 7.269531 -0.78125 5.09375 -3.0625 C 2.925781 -5.351562 1.84375 -8.675781 1.84375 -13.03125 C 1.84375 -17.351562 2.921875 -20.648438 5.078125 -22.921875 C 7.234375 -25.203125 10.375 -26.34375 14.5 -26.34375 C 18.625 -26.34375 21.75 -25.210938 23.875 -22.953125 C 26 -20.691406 27.0625 -17.375 27.0625 -13 Z M 9.21875 -13 C 9.21875 -7.988281 10.960938 -5.484375 14.453125 -5.484375 C 16.234375 -5.484375 17.550781 -6.09375 18.40625 -7.3125 C 19.257812 -8.53125 19.6875 -10.425781 19.6875 -13 C 19.6875 -15.59375 19.25 -17.503906 18.375 -18.734375 C 17.507812 -19.972656 16.21875 -20.59375 14.5 -20.59375 C 10.976562 -20.59375 9.21875 -18.0625 9.21875 -13 Z M 9.21875 -13 "/></g></g></g><g fill="#172323" fill-opacity="1"><g transform="translate(130.075696, 235.172024)"><g><path d="M 14.34375 -20.5625 C 12.675781 -20.5625 11.375 -19.878906 10.4375 -18.515625 C 9.507812 -17.148438 9.046875 -15.265625 9.046875 -12.859375 C 9.046875 -7.867188 10.941406 -5.375 14.734375 -5.375 C 15.890625 -5.375 17.003906 -5.53125 18.078125 -5.84375 C 19.148438 -6.164062 20.234375 -6.550781 21.328125 -7 L 21.328125 -1.078125 C 19.160156 -0.117188 16.710938 0.359375 13.984375 0.359375 C 10.066406 0.359375 7.0625 -0.773438 4.96875 -3.046875 C 2.882812 -5.316406 1.84375 -8.597656 1.84375 -12.890625 C 1.84375 -15.578125 2.347656 -17.9375 3.359375 -19.96875 C 4.367188 -22.007812 5.820312 -23.578125 7.71875 -24.671875 C 9.625 -25.765625 11.859375 -26.3125 14.421875 -26.3125 C 17.222656 -26.3125 19.898438 -25.703125 22.453125 -24.484375 L 20.3125 -18.96875 C 19.351562 -19.414062 18.394531 -19.789062 17.4375 -20.09375 C 16.476562 -20.40625 15.445312 -20.5625 14.34375 -20.5625 Z M 14.34375 -20.5625 "/></g></g></g><g fill="#172323" fill-opacity="1"><g transform="translate(158.731011, 235.172024)"><g><path d="M 24.84375 -25.9375 L 24.84375 -10.328125 C 24.84375 -6.929688 23.882812 -4.300781 21.96875 -2.4375 C 20.050781 -0.570312 17.28125 0.359375 13.65625 0.359375 C 10.125 0.359375 7.40625 -0.546875 5.5 -2.359375 C 3.601562 -4.171875 2.65625 -6.773438 2.65625 -10.171875 L 2.65625 -25.9375 L 9.703125 -25.9375 L 9.703125 -10.71875 C 9.703125 -8.882812 10.046875 -7.550781 10.734375 -6.71875 C 11.421875 -5.894531 12.429688 -5.484375 13.765625 -5.484375 C 15.191406 -5.484375 16.226562 -5.894531 16.875 -6.71875 C 17.519531 -7.539062 17.84375 -8.882812 17.84375 -10.75 L 17.84375 -25.9375 Z M 24.84375 -25.9375 "/></g></g></g><g fill="#172323" fill-opacity="1"><g transform="translate(191.305548, 235.172024)"><g><path d="M 9.703125 0 L 2.796875 0 L 2.796875 -25.9375 L 18.125 -25.9375 L 18.125 -20.3125 L 9.703125 -20.3125 L 9.703125 -15.359375 L 17.46875 -15.359375 L 17.46875 -9.734375 L 9.703125 -9.734375 Z M 9.703125 0 "/></g></g></g><g fill="#172323" fill-opacity="1"><g transform="translate(215.970691, 235.172024)"><g><path d="M 27.0625 -13 C 27.0625 -8.632812 25.988281 -5.316406 23.84375 -3.046875 C 21.707031 -0.773438 18.578125 0.359375 14.453125 0.359375 C 10.390625 0.359375 7.269531 -0.78125 5.09375 -3.0625 C 2.925781 -5.351562 1.84375 -8.675781 1.84375 -13.03125 C 1.84375 -17.351562 2.921875 -20.648438 5.078125 -22.921875 C 7.234375 -25.203125 10.375 -26.34375 14.5 -26.34375 C 18.625 -26.34375 21.75 -25.210938 23.875 -22.953125 C 26 -20.691406 27.0625 -17.375 27.0625 -13 Z M 9.21875 -13 C 9.21875 -7.988281 10.960938 -5.484375 14.453125 -5.484375 C 16.234375 -5.484375 17.550781 -6.09375 18.40625 -7.3125 C 19.257812 -8.53125 19.6875 -10.425781 19.6875 -13 C 19.6875 -15.59375 19.25 -17.503906 18.375 -18.734375 C 17.507812 -19.972656 16.21875 -20.59375 14.5 -20.59375 C 10.976562 -20.59375 9.21875 -18.0625 9.21875 -13 Z M 9.21875 -13 "/></g></g></g><g fill="#172323" fill-opacity="1"><g transform="translate(249.999421, 235.172024)"><g><path d="M 9.8125 -9.4375 L 9.8125 0 L 2.796875 0 L 2.796875 -25.9375 L 11.296875 -25.9375 C 18.347656 -25.9375 21.875 -23.378906 21.875 -18.265625 C 21.875 -15.265625 20.40625 -12.941406 17.46875 -11.296875 L 25.03125 0 L 17.078125 0 L 11.578125 -9.4375 Z M 9.8125 -14.703125 L 11.125 -14.703125 C 13.570312 -14.703125 14.796875 -15.785156 14.796875 -17.953125 C 14.796875 -19.734375 13.59375 -20.625 11.1875 -20.625 L 9.8125 -20.625 Z M 9.8125 -14.703125 "/></g></g></g><g fill="#172323" fill-opacity="1"><g transform="translate(279.665571, 235.172024)"><g><path d="M 14.109375 0 L 8.796875 -18.671875 L 8.640625 -18.671875 C 8.890625 -15.492188 9.015625 -13.023438 9.015625 -11.265625 L 9.015625 0 L 2.796875 0 L 2.796875 -25.9375 L 12.140625 -25.9375 L 17.546875 -7.515625 L 17.6875 -7.515625 L 22.984375 -25.9375 L 32.34375 -25.9375 L 32.34375 0 L 25.890625 0 L 25.890625 -11.375 C 25.890625 -11.957031 25.898438 -12.609375 25.921875 -13.328125 C 25.941406 -14.054688 26.019531 -15.828125 26.15625 -18.640625 L 26 -18.640625 L 20.765625 0 Z M 14.109375 0 "/></g></g></g><g fill="#172323" fill-opacity="1"><g transform="translate(102.235224, 248.855521)"><g><path d="M 2.203125 0 L 1.390625 0 L 1.390625 -3.609375 L 0.0625 -3.609375 L 0.0625 -4.34375 L 3.53125 -4.34375 L 3.53125 -3.609375 L 2.203125 -3.609375 Z M 2.203125 0 "/></g></g></g><g fill="#172323" fill-opacity="1"><g transform="translate(108.663364, 248.855521)"><g><path d="M 2.953125 -1.890625 L 3.734375 0 L 2.875 0 L 2.171875 -1.734375 L 1.203125 -1.734375 L 1.203125 0 L 0.390625 0 L 0.390625 -4.34375 L 2.265625 -4.34375 C 2.535156 -4.34375 2.773438 -4.296875 2.984375 -4.203125 C 3.191406 -4.117188 3.351562 -3.984375 3.46875 -3.796875 C 3.582031 -3.609375 3.640625 -3.363281 3.640625 -3.0625 C 3.640625 -2.78125 3.578125 -2.535156 3.453125 -2.328125 C 3.335938 -2.128906 3.171875 -1.984375 2.953125 -1.890625 Z M 2.15625 -3.609375 L 1.203125 -3.609375 L 1.203125 -2.453125 L 2.15625 -2.453125 C 2.375 -2.453125 2.539062 -2.5 2.65625 -2.59375 C 2.769531 -2.695312 2.828125 -2.847656 2.828125 -3.046875 C 2.828125 -3.222656 2.765625 -3.359375 2.640625 -3.453125 C 2.523438 -3.554688 2.363281 -3.609375 2.15625 -3.609375 Z M 2.15625 -3.609375 "/></g></g></g><g fill="#172323" fill-opacity="1"><g transform="translate(115.42832, 248.855521)"><g><path d="M 0.90625 0 L 0.046875 0 L 1.578125 -4.34375 L 2.46875 -4.34375 L 4.015625 0 L 3.140625 0 L 2.859375 -0.890625 L 1.1875 -0.890625 Z M 2.03125 -3.453125 L 1.421875 -1.609375 L 2.625 -1.609375 Z M 2.03125 -3.453125 "/></g></g></g><g fill="#172323" fill-opacity="1"><g transform="translate(122.313167, 248.855521)"><g><path d="M 1.203125 0 L 0.390625 0 L 0.390625 -4.34375 L 1.3125 -4.34375 L 3.09375 -1.234375 L 3.09375 -4.34375 L 3.921875 -4.34375 L 3.921875 0 L 2.984375 0 L 1.203125 -3.125 Z M 1.203125 0 "/></g></g></g><g fill="#172323" fill-opacity="1"><g transform="translate(129.454907, 248.855521)"><g><path d="M 2.109375 0.078125 C 1.898438 0.078125 1.6875 0.0507812 1.46875 0 C 1.257812 -0.0507812 1.0625 -0.132812 0.875 -0.25 C 0.695312 -0.363281 0.546875 -0.515625 0.421875 -0.703125 C 0.296875 -0.898438 0.222656 -1.140625 0.203125 -1.421875 L 1.046875 -1.421875 C 1.097656 -1.210938 1.175781 -1.050781 1.28125 -0.9375 C 1.394531 -0.820312 1.523438 -0.738281 1.671875 -0.6875 C 1.816406 -0.644531 1.96875 -0.625 2.125 -0.625 C 2.34375 -0.625 2.53125 -0.671875 2.6875 -0.765625 C 2.84375 -0.859375 2.921875 -1.007812 2.921875 -1.21875 C 2.921875 -1.375 2.867188 -1.492188 2.765625 -1.578125 C 2.671875 -1.660156 2.539062 -1.722656 2.375 -1.765625 C 2.21875 -1.816406 2.046875 -1.863281 1.859375 -1.90625 C 1.679688 -1.945312 1.503906 -1.988281 1.328125 -2.03125 C 1.148438 -2.082031 0.984375 -2.148438 0.828125 -2.234375 C 0.679688 -2.328125 0.5625 -2.445312 0.46875 -2.59375 C 0.382812 -2.738281 0.34375 -2.925781 0.34375 -3.15625 C 0.34375 -3.4375 0.410156 -3.671875 0.546875 -3.859375 C 0.679688 -4.046875 0.863281 -4.1875 1.09375 -4.28125 C 1.320312 -4.382812 1.582031 -4.4375 1.875 -4.4375 C 2.15625 -4.4375 2.421875 -4.382812 2.671875 -4.28125 C 2.921875 -4.1875 3.128906 -4.035156 3.296875 -3.828125 C 3.472656 -3.628906 3.582031 -3.375 3.625 -3.0625 L 2.78125 -3.0625 C 2.726562 -3.289062 2.617188 -3.457031 2.453125 -3.5625 C 2.285156 -3.675781 2.085938 -3.734375 1.859375 -3.734375 C 1.660156 -3.734375 1.492188 -3.6875 1.359375 -3.59375 C 1.222656 -3.507812 1.15625 -3.382812 1.15625 -3.21875 C 1.15625 -3.082031 1.203125 -2.976562 1.296875 -2.90625 C 1.390625 -2.832031 1.507812 -2.769531 1.65625 -2.71875 C 1.8125 -2.675781 1.976562 -2.632812 2.15625 -2.59375 C 2.332031 -2.5625 2.515625 -2.515625 2.703125 -2.453125 C 2.890625 -2.398438 3.0625 -2.328125 3.21875 -2.234375 C 3.375 -2.140625 3.5 -2.015625 3.59375 -1.859375 C 3.6875 -1.703125 3.734375 -1.503906 3.734375 -1.265625 C 3.734375 -0.847656 3.59375 -0.519531 3.3125 -0.28125 C 3.03125 -0.0390625 2.628906 0.078125 2.109375 0.078125 Z M 2.109375 0.078125 "/></g></g></g><g fill="#172323" fill-opacity="1"><g transform="translate(136.25983, 248.855521)"><g><path d="M 1.203125 0 L 0.390625 0 L 0.390625 -4.34375 L 3.296875 -4.34375 L 3.296875 -3.609375 L 1.203125 -3.609375 L 1.203125 -2.546875 L 3.078125 -2.546875 L 3.078125 -1.8125 L 1.203125 -1.8125 Z M 1.203125 0 "/></g></g></g><g fill="#172323" fill-opacity="1"><g transform="translate(142.539534, 248.855521)"><g><path d="M 2.328125 0.078125 C 1.972656 0.078125 1.660156 0.0195312 1.390625 -0.09375 C 1.128906 -0.21875 0.910156 -0.382812 0.734375 -0.59375 C 0.566406 -0.800781 0.4375 -1.039062 0.34375 -1.3125 C 0.257812 -1.59375 0.21875 -1.878906 0.21875 -2.171875 C 0.21875 -2.472656 0.257812 -2.757812 0.34375 -3.03125 C 0.4375 -3.300781 0.566406 -3.539062 0.734375 -3.75 C 0.910156 -3.96875 1.128906 -4.132812 1.390625 -4.25 C 1.660156 -4.375 1.972656 -4.4375 2.328125 -4.4375 C 2.691406 -4.4375 3.003906 -4.375 3.265625 -4.25 C 3.535156 -4.132812 3.753906 -3.96875 3.921875 -3.75 C 4.097656 -3.539062 4.226562 -3.300781 4.3125 -3.03125 C 4.40625 -2.757812 4.453125 -2.472656 4.453125 -2.171875 C 4.453125 -1.878906 4.40625 -1.59375 4.3125 -1.3125 C 4.226562 -1.039062 4.097656 -0.800781 3.921875 -0.59375 C 3.753906 -0.382812 3.535156 -0.21875 3.265625 -0.09375 C 3.003906 0.0195312 2.691406 0.078125 2.328125 0.078125 Z M 2.328125 -0.65625 C 2.597656 -0.65625 2.828125 -0.71875 3.015625 -0.84375 C 3.203125 -0.96875 3.34375 -1.144531 3.4375 -1.375 C 3.539062 -1.613281 3.59375 -1.878906 3.59375 -2.171875 C 3.59375 -2.472656 3.539062 -2.738281 3.4375 -2.96875 C 3.34375 -3.195312 3.203125 -3.375 3.015625 -3.5 C 2.828125 -3.625 2.597656 -3.6875 2.328125 -3.6875 C 2.066406 -3.6875 1.84375 -3.625 1.65625 -3.5 C 1.46875 -3.375 1.320312 -3.195312 1.21875 -2.96875 C 1.125 -2.738281 1.078125 -2.472656 1.078125 -2.171875 C 1.078125 -1.878906 1.125 -1.613281 1.21875 -1.375 C 1.320312 -1.144531 1.46875 -0.96875 1.65625 -0.84375 C 1.84375 -0.71875 2.066406 -0.65625 2.328125 -0.65625 Z M 2.328125 -0.65625 "/></g></g></g><g fill="#172323" fill-opacity="1"><g transform="translate(150.052351, 248.855521)"><g><path d="M 2.953125 -1.890625 L 3.734375 0 L 2.875 0 L 2.171875 -1.734375 L 1.203125 -1.734375 L 1.203125 0 L 0.390625 0 L 0.390625 -4.34375 L 2.265625 -4.34375 C 2.535156 -4.34375 2.773438 -4.296875 2.984375 -4.203125 C 3.191406 -4.117188 3.351562 -3.984375 3.46875 -3.796875 C 3.582031 -3.609375 3.640625 -3.363281 3.640625 -3.0625 C 3.640625 -2.78125 3.578125 -2.535156 3.453125 -2.328125 C 3.335938 -2.128906 3.171875 -1.984375 2.953125 -1.890625 Z M 2.15625 -3.609375 L 1.203125 -3.609375 L 1.203125 -2.453125 L 2.15625 -2.453125 C 2.375 -2.453125 2.539062 -2.5 2.65625 -2.59375 C 2.769531 -2.695312 2.828125 -2.847656 2.828125 -3.046875 C 2.828125 -3.222656 2.765625 -3.359375 2.640625 -3.453125 C 2.523438 -3.554688 2.363281 -3.609375 2.15625 -3.609375 Z M 2.15625 -3.609375 "/></g></g></g><g fill="#172323" fill-opacity="1"><g transform="translate(156.817305, 248.855521)"><g><path d="M 1.203125 0 L 0.390625 0 L 0.390625 -4.34375 L 1.75 -4.34375 L 2.640625 -1 L 3.546875 -4.34375 L 4.90625 -4.34375 L 4.90625 0 L 4.09375 0 L 4.09375 -3.734375 L 3.046875 0 L 2.25 0 L 1.203125 -3.71875 Z M 1.203125 0 "/></g></g></g><g fill="#172323" fill-opacity="1"><g transform="translate(164.952381, 248.855521)"><g/></g></g><g fill="#172323" fill-opacity="1"><g transform="translate(169.313914, 248.855521)"><g><path d="M 1.203125 0 L 0.390625 0 L 0.390625 -4.34375 L 2.265625 -4.34375 C 2.535156 -4.34375 2.773438 -4.296875 2.984375 -4.203125 C 3.191406 -4.117188 3.351562 -3.984375 3.46875 -3.796875 C 3.582031 -3.609375 3.640625 -3.363281 3.640625 -3.0625 C 3.640625 -2.789062 3.582031 -2.550781 3.46875 -2.34375 C 3.351562 -2.144531 3.191406 -1.992188 2.984375 -1.890625 C 2.773438 -1.785156 2.535156 -1.734375 2.265625 -1.734375 L 1.203125 -1.734375 Z M 1.203125 -3.609375 L 1.203125 -2.453125 L 2.15625 -2.453125 C 2.375 -2.453125 2.539062 -2.5 2.65625 -2.59375 C 2.769531 -2.695312 2.828125 -2.847656 2.828125 -3.046875 C 2.828125 -3.222656 2.765625 -3.359375 2.640625 -3.453125 C 2.523438 -3.554688 2.363281 -3.609375 2.15625 -3.609375 Z M 1.203125 -3.609375 "/></g></g></g><g fill="#172323" fill-opacity="1"><g transform="translate(175.947565, 248.855521)"><g><path d="M 1.65625 0 L 0.390625 0 L 0.390625 -4.34375 L 1.65625 -4.34375 C 2.394531 -4.34375 2.957031 -4.15625 3.34375 -3.78125 C 3.726562 -3.40625 3.921875 -2.867188 3.921875 -2.171875 C 3.921875 -1.472656 3.722656 -0.9375 3.328125 -0.5625 C 2.941406 -0.1875 2.382812 0 1.65625 0 Z M 1.203125 -3.609375 L 1.203125 -0.734375 L 1.640625 -0.734375 C 1.929688 -0.734375 2.1875 -0.773438 2.40625 -0.859375 C 2.625 -0.953125 2.796875 -1.101562 2.921875 -1.3125 C 3.046875 -1.53125 3.109375 -1.816406 3.109375 -2.171875 C 3.109375 -2.515625 3.046875 -2.789062 2.921875 -3 C 2.804688 -3.207031 2.640625 -3.359375 2.421875 -3.453125 C 2.203125 -3.554688 1.941406 -3.609375 1.640625 -3.609375 Z M 1.203125 -3.609375 "/></g></g></g><g fill="#172323" fill-opacity="1"><g transform="translate(182.93517, 248.855521)"><g><path d="M 1.203125 0 L 0.390625 0 L 0.390625 -4.34375 L 3.296875 -4.34375 L 3.296875 -3.609375 L 1.203125 -3.609375 L 1.203125 -2.546875 L 3.078125 -2.546875 L 3.078125 -1.8125 L 1.203125 -1.8125 Z M 1.203125 0 "/></g></g></g><g fill="#172323" fill-opacity="1"><g transform="translate(189.214874, 248.855521)"><g><path d="M 2.109375 0.078125 C 1.898438 0.078125 1.6875 0.0507812 1.46875 0 C 1.257812 -0.0507812 1.0625 -0.132812 0.875 -0.25 C 0.695312 -0.363281 0.546875 -0.515625 0.421875 -0.703125 C 0.296875 -0.898438 0.222656 -1.140625 0.203125 -1.421875 L 1.046875 -1.421875 C 1.097656 -1.210938 1.175781 -1.050781 1.28125 -0.9375 C 1.394531 -0.820312 1.523438 -0.738281 1.671875 -0.6875 C 1.816406 -0.644531 1.96875 -0.625 2.125 -0.625 C 2.34375 -0.625 2.53125 -0.671875 2.6875 -0.765625 C 2.84375 -0.859375 2.921875 -1.007812 2.921875 -1.21875 C 2.921875 -1.375 2.867188 -1.492188 2.765625 -1.578125 C 2.671875 -1.660156 2.539062 -1.722656 2.375 -1.765625 C 2.21875 -1.816406 2.046875 -1.863281 1.859375 -1.90625 C 1.679688 -1.945312 1.503906 -1.988281 1.328125 -2.03125 C 1.148438 -2.082031 0.984375 -2.148438 0.828125 -2.234375 C 0.679688 -2.328125 0.5625 -2.445312 0.46875 -2.59375 C 0.382812 -2.738281 0.34375 -2.925781 0.34375 -3.15625 C 0.34375 -3.4375 0.410156 -3.671875 0.546875 -3.859375 C 0.679688 -4.046875 0.863281 -4.1875 1.09375 -4.28125 C 1.320312 -4.382812 1.582031 -4.4375 1.875 -4.4375 C 2.15625 -4.4375 2.421875 -4.382812 2.671875 -4.28125 C 2.921875 -4.1875 3.128906 -4.035156 3.296875 -3.828125 C 3.472656 -3.628906 3.582031 -3.375 3.625 -3.0625 L 2.78125 -3.0625 C 2.726562 -3.289062 2.617188 -3.457031 2.453125 -3.5625 C 2.285156 -3.675781 2.085938 -3.734375 1.859375 -3.734375 C 1.660156 -3.734375 1.492188 -3.6875 1.359375 -3.59375 C 1.222656 -3.507812 1.15625 -3.382812 1.15625 -3.21875 C 1.15625 -3.082031 1.203125 -2.976562 1.296875 -2.90625 C 1.390625 -2.832031 1.507812 -2.769531 1.65625 -2.71875 C 1.8125 -2.675781 1.976562 -2.632812 2.15625 -2.59375 C 2.332031 -2.5625 2.515625 -2.515625 2.703125 -2.453125 C 2.890625 -2.398438 3.0625 -2.328125 3.21875 -2.234375 C 3.375 -2.140625 3.5 -2.015625 3.59375 -1.859375 C 3.6875 -1.703125 3.734375 -1.503906 3.734375 -1.265625 C 3.734375 -0.847656 3.59375 -0.519531 3.3125 -0.28125 C 3.03125 -0.0390625 2.628906 0.078125 2.109375 0.078125 Z M 2.109375 0.078125 "/></g></g></g><g fill="#172323" fill-opacity="1"><g transform="translate(196.019797, 248.855521)"><g><path d="M 0.28125 0.96875 L 0.28125 0.578125 C 0.65625 0.554688 0.863281 0.394531 0.90625 0.09375 C 0.90625 0.0390625 0.90625 -0.0078125 0.90625 -0.0625 C 0.84375 0.0195312 0.75 0.0625 0.625 0.0625 C 0.53125 0.0625 0.441406 0.0234375 0.359375 -0.046875 C 0.273438 -0.128906 0.234375 -0.238281 0.234375 -0.375 C 0.234375 -0.519531 0.273438 -0.632812 0.359375 -0.71875 C 0.453125 -0.800781 0.578125 -0.84375 0.734375 -0.84375 C 0.921875 -0.84375 1.066406 -0.769531 1.171875 -0.625 C 1.273438 -0.488281 1.328125 -0.3125 1.328125 -0.09375 C 1.328125 0.0703125 1.289062 0.234375 1.21875 0.390625 C 1.15625 0.546875 1.046875 0.675781 0.890625 0.78125 C 0.734375 0.894531 0.53125 0.957031 0.28125 0.96875 Z M 0.28125 0.96875 "/></g></g></g><g fill="#172323" fill-opacity="1"><g transform="translate(200.415585, 248.855521)"><g/></g></g><g fill="#172323" fill-opacity="1"><g transform="translate(204.777117, 248.855521)"><g><path d="M 2.109375 0.078125 C 1.898438 0.078125 1.6875 0.0507812 1.46875 0 C 1.257812 -0.0507812 1.0625 -0.132812 0.875 -0.25 C 0.695312 -0.363281 0.546875 -0.515625 0.421875 -0.703125 C 0.296875 -0.898438 0.222656 -1.140625 0.203125 -1.421875 L 1.046875 -1.421875 C 1.097656 -1.210938 1.175781 -1.050781 1.28125 -0.9375 C 1.394531 -0.820312 1.523438 -0.738281 1.671875 -0.6875 C 1.816406 -0.644531 1.96875 -0.625 2.125 -0.625 C 2.34375 -0.625 2.53125 -0.671875 2.6875 -0.765625 C 2.84375 -0.859375 2.921875 -1.007812 2.921875 -1.21875 C 2.921875 -1.375 2.867188 -1.492188 2.765625 -1.578125 C 2.671875 -1.660156 2.539062 -1.722656 2.375 -1.765625 C 2.21875 -1.816406 2.046875 -1.863281 1.859375 -1.90625 C 1.679688 -1.945312 1.503906 -1.988281 1.328125 -2.03125 C 1.148438 -2.082031 0.984375 -2.148438 0.828125 -2.234375 C 0.679688 -2.328125 0.5625 -2.445312 0.46875 -2.59375 C 0.382812 -2.738281 0.34375 -2.925781 0.34375 -3.15625 C 0.34375 -3.4375 0.410156 -3.671875 0.546875 -3.859375 C 0.679688 -4.046875 0.863281 -4.1875 1.09375 -4.28125 C 1.320312 -4.382812 1.582031 -4.4375 1.875 -4.4375 C 2.15625 -4.4375 2.421875 -4.382812 2.671875 -4.28125 C 2.921875 -4.1875 3.128906 -4.035156 3.296875 -3.828125 C 3.472656 -3.628906 3.582031 -3.375 3.625 -3.0625 L 2.78125 -3.0625 C 2.726562 -3.289062 2.617188 -3.457031 2.453125 -3.5625 C 2.285156 -3.675781 2.085938 -3.734375 1.859375 -3.734375 C 1.660156 -3.734375 1.492188 -3.6875 1.359375 -3.59375 C 1.222656 -3.507812 1.15625 -3.382812 1.15625 -3.21875 C 1.15625 -3.082031 1.203125 -2.976562 1.296875 -2.90625 C 1.390625 -2.832031 1.507812 -2.769531 1.65625 -2.71875 C 1.8125 -2.675781 1.976562 -2.632812 2.15625 -2.59375 C 2.332031 -2.5625 2.515625 -2.515625 2.703125 -2.453125 C 2.890625 -2.398438 3.0625 -2.328125 3.21875 -2.234375 C 3.375 -2.140625 3.5 -2.015625 3.59375 -1.859375 C 3.6875 -1.703125 3.734375 -1.503906 3.734375 -1.265625 C 3.734375 -0.847656 3.59375 -0.519531 3.3125 -0.28125 C 3.03125 -0.0390625 2.628906 0.078125 2.109375 0.078125 Z M 2.109375 0.078125 "/></g></g></g><g fill="#172323" fill-opacity="1"><g transform="translate(211.58204, 248.855521)"><g><path d="M 1.203125 0 L 0.390625 0 L 0.390625 -4.34375 L 1.203125 -4.34375 Z M 1.203125 0 "/></g></g></g><g fill="#172323" fill-opacity="1"><g transform="translate(216.012084, 248.855521)"><g><path d="M 1.203125 0 L 0.390625 0 L 0.390625 -4.34375 L 1.75 -4.34375 L 2.640625 -1 L 3.546875 -4.34375 L 4.90625 -4.34375 L 4.90625 0 L 4.09375 0 L 4.09375 -3.734375 L 3.046875 0 L 2.25 0 L 1.203125 -3.71875 Z M 1.203125 0 "/></g></g></g><g fill="#172323" fill-opacity="1"><g transform="translate(224.147167, 248.855521)"><g><path d="M 1.203125 0 L 0.390625 0 L 0.390625 -4.34375 L 2.265625 -4.34375 C 2.535156 -4.34375 2.773438 -4.296875 2.984375 -4.203125 C 3.191406 -4.117188 3.351562 -3.984375 3.46875 -3.796875 C 3.582031 -3.609375 3.640625 -3.363281 3.640625 -3.0625 C 3.640625 -2.789062 3.582031 -2.550781 3.46875 -2.34375 C 3.351562 -2.144531 3.191406 -1.992188 2.984375 -1.890625 C 2.773438 -1.785156 2.535156 -1.734375 2.265625 -1.734375 L 1.203125 -1.734375 Z M 1.203125 -3.609375 L 1.203125 -2.453125 L 2.15625 -2.453125 C 2.375 -2.453125 2.539062 -2.5 2.65625 -2.59375 C 2.769531 -2.695312 2.828125 -2.847656 2.828125 -3.046875 C 2.828125 -3.222656 2.765625 -3.359375 2.640625 -3.453125 C 2.523438 -3.554688 2.363281 -3.609375 2.15625 -3.609375 Z M 1.203125 -3.609375 "/></g></g></g><g fill="#172323" fill-opacity="1"><g transform="translate(230.780825, 248.855521)"><g><path d="M 3.046875 0 L 0.390625 0 L 0.390625 -4.34375 L 1.203125 -4.34375 L 1.203125 -0.734375 L 3.046875 -0.734375 Z M 3.046875 0 "/></g></g></g><g fill="#172323" fill-opacity="1"><g transform="translate(236.729426, 248.855521)"><g><path d="M 1.203125 0 L 0.390625 0 L 0.390625 -4.34375 L 1.203125 -4.34375 Z M 1.203125 0 "/></g></g></g><g fill="#172323" fill-opacity="1"><g transform="translate(241.159477, 248.855521)"><g><path d="M 1.203125 0 L 0.390625 0 L 0.390625 -4.34375 L 3.296875 -4.34375 L 3.296875 -3.609375 L 1.203125 -3.609375 L 1.203125 -2.546875 L 3.078125 -2.546875 L 3.078125 -1.8125 L 1.203125 -1.8125 Z M 1.203125 0 "/></g></g></g><g fill="#172323" fill-opacity="1"><g transform="translate(247.439181, 248.855521)"><g><path d="M 2.421875 0 L 1.5625 0 L 1.5625 -1.703125 L -0.015625 -4.34375 L 0.9375 -4.34375 L 2 -2.5 L 3.0625 -4.34375 L 4.015625 -4.34375 L 2.421875 -1.703125 Z M 2.421875 0 "/></g></g></g><g fill="#172323" fill-opacity="1"><g transform="translate(254.266933, 248.855521)"><g/></g></g><g fill="#172323" fill-opacity="1"><g transform="translate(258.628473, 248.855521)"><g><path d="M 1.203125 0 L 0.390625 0 L 0.390625 -4.34375 L 3.296875 -4.34375 L 3.296875 -3.609375 L 1.203125 -3.609375 L 1.203125 -2.546875 L 3.078125 -2.546875 L 3.078125 -1.8125 L 1.203125 -1.8125 Z M 1.203125 0 "/></g></g></g><g fill="#172323" fill-opacity="1"><g transform="translate(264.908177, 248.855521)"><g><path d="M 2.328125 0.078125 C 1.972656 0.078125 1.660156 0.0195312 1.390625 -0.09375 C 1.128906 -0.21875 0.910156 -0.382812 0.734375 -0.59375 C 0.566406 -0.800781 0.4375 -1.039062 0.34375 -1.3125 C 0.257812 -1.59375 0.21875 -1.878906 0.21875 -2.171875 C 0.21875 -2.472656 0.257812 -2.757812 0.34375 -3.03125 C 0.4375 -3.300781 0.566406 -3.539062 0.734375 -3.75 C 0.910156 -3.96875 1.128906 -4.132812 1.390625 -4.25 C 1.660156 -4.375 1.972656 -4.4375 2.328125 -4.4375 C 2.691406 -4.4375 3.003906 -4.375 3.265625 -4.25 C 3.535156 -4.132812 3.753906 -3.96875 3.921875 -3.75 C 4.097656 -3.539062 4.226562 -3.300781 4.3125 -3.03125 C 4.40625 -2.757812 4.453125 -2.472656 4.453125 -2.171875 C 4.453125 -1.878906 4.40625 -1.59375 4.3125 -1.3125 C 4.226562 -1.039062 4.097656 -0.800781 3.921875 -0.59375 C 3.753906 -0.382812 3.535156 -0.21875 3.265625 -0.09375 C 3.003906 0.0195312 2.691406 0.078125 2.328125 0.078125 Z M 2.328125 -0.65625 C 2.597656 -0.65625 2.828125 -0.71875 3.015625 -0.84375 C 3.203125 -0.96875 3.34375 -1.144531 3.4375 -1.375 C 3.539062 -1.613281 3.59375 -1.878906 3.59375 -2.171875 C 3.59375 -2.472656 3.539062 -2.738281 3.4375 -2.96875 C 3.34375 -3.195312 3.203125 -3.375 3.015625 -3.5 C 2.828125 -3.625 2.597656 -3.6875 2.328125 -3.6875 C 2.066406 -3.6875 1.84375 -3.625 1.65625 -3.5 C 1.46875 -3.375 1.320312 -3.195312 1.21875 -2.96875 C 1.125 -2.738281 1.078125 -2.472656 1.078125 -2.171875 C 1.078125 -1.878906 1.125 -1.613281 1.21875 -1.375 C 1.320312 -1.144531 1.46875 -0.96875 1.65625 -0.84375 C 1.84375 -0.71875 2.066406 -0.65625 2.328125 -0.65625 Z M 2.328125 -0.65625 "/></g></g></g><g fill="#172323" fill-opacity="1"><g transform="translate(272.421001, 248.855521)"><g><path d="M 2.953125 -1.890625 L 3.734375 0 L 2.875 0 L 2.171875 -1.734375 L 1.203125 -1.734375 L 1.203125 0 L 0.390625 0 L 0.390625 -4.34375 L 2.265625 -4.34375 C 2.535156 -4.34375 2.773438 -4.296875 2.984375 -4.203125 C 3.191406 -4.117188 3.351562 -3.984375 3.46875 -3.796875 C 3.582031 -3.609375 3.640625 -3.363281 3.640625 -3.0625 C 3.640625 -2.78125 3.578125 -2.535156 3.453125 -2.328125 C 3.335938 -2.128906 3.171875 -1.984375 2.953125 -1.890625 Z M 2.15625 -3.609375 L 1.203125 -3.609375 L 1.203125 -2.453125 L 2.15625 -2.453125 C 2.375 -2.453125 2.539062 -2.5 2.65625 -2.59375 C 2.769531 -2.695312 2.828125 -2.847656 2.828125 -3.046875 C 2.828125 -3.222656 2.765625 -3.359375 2.640625 -3.453125 C 2.523438 -3.554688 2.363281 -3.609375 2.15625 -3.609375 Z M 2.15625 -3.609375 "/></g></g></g><g fill="#172323" fill-opacity="1"><g transform="translate(279.185963, 248.855521)"><g><path d="M 1.203125 0 L 0.390625 0 L 0.390625 -4.34375 L 1.75 -4.34375 L 2.640625 -1 L 3.546875 -4.34375 L 4.90625 -4.34375 L 4.90625 0 L 4.09375 0 L 4.09375 -3.734375 L 3.046875 0 L 2.25 0 L 1.203125 -3.71875 Z M 1.203125 0 "/></g></g></g><g fill="#172323" fill-opacity="1"><g transform="translate(287.321039, 248.855521)"><g><path d="M 2.109375 0.078125 C 1.898438 0.078125 1.6875 0.0507812 1.46875 0 C 1.257812 -0.0507812 1.0625 -0.132812 0.875 -0.25 C 0.695312 -0.363281 0.546875 -0.515625 0.421875 -0.703125 C 0.296875 -0.898438 0.222656 -1.140625 0.203125 -1.421875 L 1.046875 -1.421875 C 1.097656 -1.210938 1.175781 -1.050781 1.28125 -0.9375 C 1.394531 -0.820312 1.523438 -0.738281 1.671875 -0.6875 C 1.816406 -0.644531 1.96875 -0.625 2.125 -0.625 C 2.34375 -0.625 2.53125 -0.671875 2.6875 -0.765625 C 2.84375 -0.859375 2.921875 -1.007812 2.921875 -1.21875 C 2.921875 -1.375 2.867188 -1.492188 2.765625 -1.578125 C 2.671875 -1.660156 2.539062 -1.722656 2.375 -1.765625 C 2.21875 -1.816406 2.046875 -1.863281 1.859375 -1.90625 C 1.679688 -1.945312 1.503906 -1.988281 1.328125 -2.03125 C 1.148438 -2.082031 0.984375 -2.148438 0.828125 -2.234375 C 0.679688 -2.328125 0.5625 -2.445312 0.46875 -2.59375 C 0.382812 -2.738281 0.34375 -2.925781 0.34375 -3.15625 C 0.34375 -3.4375 0.410156 -3.671875 0.546875 -3.859375 C 0.679688 -4.046875 0.863281 -4.1875 1.09375 -4.28125 C 1.320312 -4.382812 1.582031 -4.4375 1.875 -4.4375 C 2.15625 -4.4375 2.421875 -4.382812 2.671875 -4.28125 C 2.921875 -4.1875 3.128906 -4.035156 3.296875 -3.828125 C 3.472656 -3.628906 3.582031 -3.375 3.625 -3.0625 L 2.78125 -3.0625 C 2.726562 -3.289062 2.617188 -3.457031 2.453125 -3.5625 C 2.285156 -3.675781 2.085938 -3.734375 1.859375 -3.734375 C 1.660156 -3.734375 1.492188 -3.6875 1.359375 -3.59375 C 1.222656 -3.507812 1.15625 -3.382812 1.15625 -3.21875 C 1.15625 -3.082031 1.203125 -2.976562 1.296875 -2.90625 C 1.390625 -2.832031 1.507812 -2.769531 1.65625 -2.71875 C 1.8125 -2.675781 1.976562 -2.632812 2.15625 -2.59375 C 2.332031 -2.5625 2.515625 -2.515625 2.703125 -2.453125 C 2.890625 -2.398438 3.0625 -2.328125 3.21875 -2.234375 C 3.375 -2.140625 3.5 -2.015625 3.59375 -1.859375 C 3.6875 -1.703125 3.734375 -1.503906 3.734375 -1.265625 C 3.734375 -0.847656 3.59375 -0.519531 3.3125 -0.28125 C 3.03125 -0.0390625 2.628906 0.078125 2.109375 0.078125 Z M 2.109375 0.078125 "/></g></g></g><g clip-path="url(#ae74594a28)"><path fill="#0097b2" d="M 131.339844 151.074219 L 131.339844 135.15625 L 115.421875 135.15625 L 115.421875 151.074219 Z M 148.085938 119.207031 L 164.003906 119.207031 L 164.003906 103.289062 L 148.085938 103.289062 Z M 179.855469 119.207031 L 219.28125 119.207031 C 232.699219 119.207031 243.65625 130.195312 243.65625 143.582031 C 243.65625 157.003906 232.699219 167.957031 219.28125 167.957031 L 195.804688 167.957031 L 195.804688 135.15625 L 147.621094 135.15625 L 147.621094 151.074219 L 179.855469 151.074219 L 179.855469 183.875 L 219.28125 183.875 C 241.457031 183.875 259.574219 165.757812 259.574219 143.582031 C 259.574219 121.4375 241.457031 103.289062 219.28125 103.289062 L 179.855469 103.289062 Z M 164.003906 183.875 L 164.003906 167.957031 L 148.085938 167.957031 L 148.085938 183.875 Z M 164.003906 183.875 " fill-opacity="1" fill-rule="evenodd"/></g><path fill="#eceff1" d="M 120.695312 139.621094 L 126.113281 139.621094 C 126.226562 139.621094 126.324219 139.660156 126.40625 139.742188 C 126.488281 139.824219 126.53125 139.921875 126.53125 140.039062 L 126.53125 147.125 C 126.53125 147.238281 126.488281 147.335938 126.40625 147.417969 C 126.324219 147.5 126.226562 147.539062 126.113281 147.539062 L 120.695312 147.539062 C 120.578125 147.539062 120.480469 147.5 120.398438 147.417969 C 120.316406 147.335938 120.277344 147.238281 120.277344 147.125 L 120.277344 140.039062 C 120.277344 139.921875 120.316406 139.824219 120.398438 139.742188 C 120.480469 139.660156 120.578125 139.621094 120.695312 139.621094 Z M 120.695312 139.621094 " fill-opacity="1" fill-rule="nonzero"/><g clip-path="url(#78034d3122)"><path fill="#ffffff" d="M 120.484375 138.160156 C 120.484375 138.390625 120.296875 138.578125 120.066406 138.578125 L 118.402344 138.578125 L 118.402344 140.246094 C 118.402344 140.476562 118.214844 140.664062 117.984375 140.664062 C 117.753906 140.664062 117.566406 140.476562 117.566406 140.246094 L 117.566406 138.578125 C 117.566406 138.117188 117.941406 137.746094 118.402344 137.746094 L 120.066406 137.746094 C 120.296875 137.746094 120.484375 137.929688 120.484375 138.160156 Z M 120.484375 138.160156 " fill-opacity="1" fill-rule="nonzero"/></g><g clip-path="url(#ce1ed35e59)"><path fill="#ffffff" d="M 128.820312 140.664062 C 128.59375 140.664062 128.40625 140.476562 128.40625 140.246094 L 128.40625 138.578125 L 126.738281 138.578125 C 126.507812 138.578125 126.320312 138.390625 126.320312 138.160156 C 126.320312 137.929688 126.507812 137.746094 126.738281 137.746094 L 128.40625 137.746094 C 128.867188 137.746094 129.238281 138.117188 129.238281 138.578125 L 129.238281 140.246094 C 129.238281 140.476562 129.050781 140.664062 128.820312 140.664062 Z M 128.820312 140.664062 " fill-opacity="1" fill-rule="nonzero"/></g><g clip-path="url(#bc5b66ade9)"><path fill="#ffffff" d="M 126.320312 149 C 126.320312 148.769531 126.507812 148.582031 126.738281 148.582031 L 128.40625 148.582031 L 128.40625 146.914062 C 128.40625 146.683594 128.59375 146.5 128.820312 146.5 C 129.050781 146.5 129.238281 146.683594 129.238281 146.914062 L 129.238281 148.582031 C 129.238281 149.042969 128.867188 149.417969 128.40625 149.417969 L 126.738281 149.417969 C 126.507812 149.417969 126.320312 149.230469 126.320312 149 Z M 126.320312 149 " fill-opacity="1" fill-rule="nonzero"/></g><g clip-path="url(#8cbe561fbb)"><path fill="#ffffff" d="M 117.984375 146.5 C 118.214844 146.5 118.402344 146.683594 118.402344 146.914062 L 118.402344 148.582031 L 120.066406 148.582031 C 120.296875 148.582031 120.484375 148.769531 120.484375 149 C 120.484375 149.230469 120.296875 149.417969 120.066406 149.417969 L 118.402344 149.417969 C 117.941406 149.417969 117.566406 149.042969 117.566406 148.582031 L 117.566406 146.914062 C 117.566406 146.683594 117.753906 146.5 117.984375 146.5 Z M 117.984375 146.5 " fill-opacity="1" fill-rule="nonzero"/></g><path fill="#546e7a" d="M 125.277344 142.484375 L 121.527344 142.484375 C 121.441406 142.484375 121.371094 142.417969 121.371094 142.328125 C 121.371094 142.242188 121.441406 142.171875 121.527344 142.171875 L 125.277344 142.171875 C 125.363281 142.171875 125.433594 142.242188 125.433594 142.328125 C 125.433594 142.417969 125.363281 142.484375 125.277344 142.484375 Z M 125.277344 142.484375 " fill-opacity="1" fill-rule="nonzero"/><path fill="#546e7a" d="M 125.277344 141.234375 L 121.527344 141.234375 C 121.441406 141.234375 121.371094 141.164062 121.371094 141.078125 C 121.371094 140.992188 121.441406 140.921875 121.527344 140.921875 L 125.277344 140.921875 C 125.363281 140.921875 125.433594 140.992188 125.433594 141.078125 C 125.433594 141.164062 125.363281 141.234375 125.277344 141.234375 Z M 125.277344 141.234375 " fill-opacity="1" fill-rule="nonzero"/><path fill="#546e7a" d="M 125.277344 144.988281 L 121.527344 144.988281 C 121.441406 144.988281 121.371094 144.917969 121.371094 144.832031 C 121.371094 144.746094 121.441406 144.675781 121.527344 144.675781 L 125.277344 144.675781 C 125.363281 144.675781 125.433594 144.746094 125.433594 144.832031 C 125.433594 144.917969 125.363281 144.988281 125.277344 144.988281 Z M 125.277344 144.988281 " fill-opacity="1" fill-rule="nonzero"/><path fill="#546e7a" d="M 125.277344 146.238281 L 121.527344 146.238281 C 121.441406 146.238281 121.371094 146.167969 121.371094 146.082031 C 121.371094 145.996094 121.441406 145.925781 121.527344 145.925781 L 125.277344 145.925781 C 125.363281 145.925781 125.433594 145.996094 125.433594 146.082031 C 125.433594 146.167969 125.363281 146.238281 125.277344 146.238281 Z M 125.277344 146.238281 " fill-opacity="1" fill-rule="nonzero"/><path fill="#ffffff" d="M 118.816406 143.164062 L 127.988281 143.164062 C 128.128906 143.164062 128.195312 143.234375 128.195312 143.371094 L 128.195312 143.789062 C 128.195312 143.929688 128.128906 143.996094 127.988281 143.996094 L 118.816406 143.996094 C 118.679688 143.996094 118.609375 143.929688 118.609375 143.789062 L 118.609375 143.371094 C 118.609375 143.234375 118.679688 143.164062 118.816406 143.164062 Z M 118.816406 143.164062 " fill-opacity="1" fill-rule="nonzero"/><g clip-path="url(#58a8e6431a)"><path fill="#eceff1" d="M 160.84375 181.128906 L 150.789062 181.128906 C 150.574219 181.128906 150.402344 180.957031 150.402344 180.742188 L 150.402344 171.847656 L 161.230469 171.847656 L 161.230469 180.742188 C 161.230469 180.957031 161.058594 181.128906 160.84375 181.128906 Z M 150.789062 170.300781 L 160.84375 170.300781 C 161.058594 170.300781 161.230469 170.472656 161.230469 170.6875 L 161.230469 171.460938 L 150.402344 171.460938 L 150.402344 170.6875 C 150.402344 170.472656 150.574219 170.300781 150.789062 170.300781 Z M 160.84375 169.914062 L 150.789062 169.914062 C 150.363281 169.914062 150.015625 170.261719 150.015625 170.6875 L 150.015625 180.742188 C 150.015625 181.167969 150.363281 181.515625 150.789062 181.515625 L 160.84375 181.515625 C 161.269531 181.515625 161.617188 181.167969 161.617188 180.742188 L 161.617188 170.6875 C 161.617188 170.261719 161.269531 169.914062 160.84375 169.914062 " fill-opacity="1" fill-rule="nonzero"/></g><path fill="#eceff1" d="M 151.753906 173.394531 L 151.753906 172.8125 L 159.875 172.8125 L 159.875 173.394531 Z M 159.875 172.425781 L 151.753906 172.425781 C 151.542969 172.425781 151.367188 172.601562 151.367188 172.8125 L 151.367188 173.394531 C 151.367188 173.609375 151.542969 173.78125 151.753906 173.78125 L 159.875 173.78125 C 160.089844 173.78125 160.261719 173.609375 160.261719 173.394531 L 160.261719 172.8125 C 160.261719 172.601562 160.089844 172.425781 159.875 172.425781 " fill-opacity="1" fill-rule="nonzero"/><path fill="#eceff1" d="M 151.753906 178.613281 L 151.753906 174.746094 L 159.875 174.746094 L 159.878906 178.613281 Z M 159.875 174.359375 L 151.753906 174.359375 C 151.542969 174.359375 151.367188 174.535156 151.367188 174.746094 L 151.367188 178.613281 C 151.367188 178.828125 151.542969 179 151.753906 179 L 159.875 179 C 160.089844 179 160.261719 178.828125 160.261719 178.613281 L 160.261719 174.746094 C 160.261719 174.535156 160.089844 174.359375 159.875 174.359375 " fill-opacity="1" fill-rule="nonzero"/><path fill="#eceff1" d="M 156.203125 180.160156 C 156.097656 180.160156 156.007812 180.074219 156.007812 179.96875 C 156.007812 179.863281 156.097656 179.773438 156.203125 179.773438 C 156.308594 179.773438 156.394531 179.863281 156.394531 179.96875 C 156.394531 180.074219 156.308594 180.160156 156.203125 180.160156 Z M 156.203125 179.386719 C 155.882812 179.386719 155.621094 179.648438 155.621094 179.96875 C 155.621094 180.289062 155.882812 180.546875 156.203125 180.546875 C 156.523438 180.546875 156.78125 180.289062 156.78125 179.96875 C 156.78125 179.648438 156.523438 179.386719 156.203125 179.386719 " fill-opacity="1" fill-rule="nonzero"/><path fill="#eceff1" d="M 159.488281 180.160156 L 157.941406 180.160156 C 157.835938 180.160156 157.75 180.074219 157.75 179.96875 C 157.75 179.863281 157.835938 179.773438 157.941406 179.773438 L 159.488281 179.773438 C 159.597656 179.773438 159.683594 179.863281 159.683594 179.96875 C 159.683594 180.074219 159.597656 180.160156 159.488281 180.160156 Z M 159.488281 179.386719 L 157.941406 179.386719 C 157.625 179.386719 157.363281 179.648438 157.363281 179.96875 C 157.363281 180.289062 157.625 180.546875 157.941406 180.546875 L 159.488281 180.546875 C 159.808594 180.546875 160.070312 180.289062 160.070312 179.96875 C 160.070312 179.648438 159.808594 179.386719 159.488281 179.386719 " fill-opacity="1" fill-rule="nonzero"/><g clip-path="url(#f20824d926)"><path fill="#eceff1" d="M 150.980469 171.074219 C 151.089844 171.074219 151.175781 170.988281 151.175781 170.878906 C 151.175781 170.769531 151.089844 170.6875 150.980469 170.6875 C 150.875 170.6875 150.789062 170.773438 150.789062 170.878906 C 150.789062 170.988281 150.875 171.074219 150.980469 171.074219 " fill-opacity="1" fill-rule="nonzero"/></g><path fill="#eceff1" d="M 151.753906 171.074219 C 151.863281 171.074219 151.949219 170.988281 151.949219 170.878906 C 151.949219 170.769531 151.863281 170.6875 151.753906 170.6875 C 151.648438 170.6875 151.5625 170.773438 151.5625 170.878906 C 151.5625 170.988281 151.648438 171.074219 151.753906 171.074219 " fill-opacity="1" fill-rule="nonzero"/><path fill="#eceff1" d="M 152.527344 171.074219 C 152.636719 171.074219 152.722656 170.988281 152.722656 170.878906 C 152.722656 170.769531 152.636719 170.6875 152.527344 170.6875 C 152.421875 170.6875 152.335938 170.773438 152.335938 170.878906 C 152.335938 170.988281 152.421875 171.074219 152.527344 171.074219 " fill-opacity="1" fill-rule="nonzero"/><path fill="#eceff1" d="M 154.074219 171.074219 L 159.875 171.074219 C 159.984375 171.074219 160.070312 170.988281 160.070312 170.878906 C 160.070312 170.773438 159.984375 170.6875 159.875 170.6875 L 154.074219 170.6875 C 153.96875 170.6875 153.882812 170.773438 153.882812 170.878906 C 153.882812 170.988281 153.96875 171.074219 154.074219 171.074219 " fill-opacity="1" fill-rule="nonzero"/><g clip-path="url(#41d427c39a)"><path fill="#eceff1" d="M 157.539062 105.253906 L 152.832031 105.253906 C 152 105.253906 151.320312 105.929688 151.320312 106.761719 L 151.320312 114.957031 C 151.320312 115.789062 152 116.46875 152.832031 116.46875 L 158.804688 116.46875 C 159.636719 116.46875 160.3125 115.789062 160.3125 114.957031 L 160.3125 108.355469 Z M 157.757812 106.691406 L 159.027344 108.109375 L 157.757812 108.109375 Z M 158.804688 115.671875 L 152.832031 115.671875 C 152.4375 115.671875 152.117188 115.351562 152.117188 114.957031 L 152.117188 106.761719 C 152.117188 106.367188 152.4375 106.046875 152.832031 106.046875 L 156.964844 106.046875 L 156.964844 108.902344 L 159.519531 108.902344 L 159.519531 114.957031 C 159.519531 115.351562 159.199219 115.671875 158.804688 115.671875 Z M 158.804688 115.671875 " fill-opacity="1" fill-rule="nonzero"/></g><path fill="#eceff1" d="M 152.96875 113.292969 L 158.664062 113.292969 L 158.664062 114.089844 L 152.96875 114.089844 Z M 152.96875 113.292969 " fill-opacity="1" fill-rule="nonzero"/><path fill="#eceff1" d="M 152.96875 111.566406 L 158.664062 111.566406 L 158.664062 112.359375 L 152.96875 112.359375 Z M 152.96875 111.566406 " fill-opacity="1" fill-rule="nonzero"/><path fill="#eceff1" d="M 152.96875 109.835938 L 158.664062 109.835938 L 158.664062 110.632812 L 152.96875 110.632812 Z M 152.96875 109.835938 " fill-opacity="1" fill-rule="nonzero"/><g clip-path="url(#41d5a09421)"><path fill="#eceff1" d="M 160.84375 181.128906 L 150.789062 181.128906 C 150.574219 181.128906 150.402344 180.957031 150.402344 180.742188 L 150.402344 171.847656 L 161.230469 171.847656 L 161.230469 180.742188 C 161.230469 180.957031 161.058594 181.128906 160.84375 181.128906 Z M 150.789062 170.300781 L 160.84375 170.300781 C 161.058594 170.300781 161.230469 170.472656 161.230469 170.6875 L 161.230469 171.460938 L 150.402344 171.460938 L 150.402344 170.6875 C 150.402344 170.472656 150.574219 170.300781 150.789062 170.300781 Z M 160.84375 169.914062 L 150.789062 169.914062 C 150.363281 169.914062 150.015625 170.261719 150.015625 170.6875 L 150.015625 180.742188 C 150.015625 181.167969 150.363281 181.515625 150.789062 181.515625 L 160.84375 181.515625 C 161.269531 181.515625 161.617188 181.167969 161.617188 180.742188 L 161.617188 170.6875 C 161.617188 170.261719 161.269531 169.914062 160.84375 169.914062 " fill-opacity="1" fill-rule="nonzero"/></g><path fill="#eceff1" d="M 151.753906 173.394531 L 151.753906 172.8125 L 159.875 172.8125 L 159.875 173.394531 Z M 159.875 172.425781 L 151.753906 172.425781 C 151.542969 172.425781 151.367188 172.601562 151.367188 172.8125 L 151.367188 173.394531 C 151.367188 173.609375 151.542969 173.78125 151.753906 173.78125 L 159.875 173.78125 C 160.089844 173.78125 160.261719 173.609375 160.261719 173.394531 L 160.261719 172.8125 C 160.261719 172.601562 160.089844 172.425781 159.875 172.425781 " fill-opacity="1" fill-rule="nonzero"/><path fill="#eceff1" d="M 151.753906 178.613281 L 151.753906 174.746094 L 159.875 174.746094 L 159.878906 178.613281 Z M 159.875 174.359375 L 151.753906 174.359375 C 151.542969 174.359375 151.367188 174.535156 151.367188 174.746094 L 151.367188 178.613281 C 151.367188 178.828125 151.542969 179 151.753906 179 L 159.875 179 C 160.089844 179 160.261719 178.828125 160.261719 178.613281 L 160.261719 174.746094 C 160.261719 174.535156 160.089844 174.359375 159.875 174.359375 " fill-opacity="1" fill-rule="nonzero"/><path fill="#eceff1" d="M 156.203125 180.160156 C 156.097656 180.160156 156.007812 180.074219 156.007812 179.96875 C 156.007812 179.863281 156.097656 179.773438 156.203125 179.773438 C 156.308594 179.773438 156.394531 179.863281 156.394531 179.96875 C 156.394531 180.074219 156.308594 180.160156 156.203125 180.160156 Z M 156.203125 179.386719 C 155.882812 179.386719 155.621094 179.648438 155.621094 179.96875 C 155.621094 180.289062 155.882812 180.546875 156.203125 180.546875 C 156.523438 180.546875 156.78125 180.289062 156.78125 179.96875 C 156.78125 179.648438 156.523438 179.386719 156.203125 179.386719 " fill-opacity="1" fill-rule="nonzero"/><path fill="#eceff1" d="M 159.488281 180.160156 L 157.941406 180.160156 C 157.835938 180.160156 157.75 180.074219 157.75 179.96875 C 157.75 179.863281 157.835938 179.773438 157.941406 179.773438 L 159.488281 179.773438 C 159.597656 179.773438 159.683594 179.863281 159.683594 179.96875 C 159.683594 180.074219 159.597656 180.160156 159.488281 180.160156 Z M 159.488281 179.386719 L 157.941406 179.386719 C 157.625 179.386719 157.363281 179.648438 157.363281 179.96875 C 157.363281 180.289062 157.625 180.546875 157.941406 180.546875 L 159.488281 180.546875 C 159.808594 180.546875 160.070312 180.289062 160.070312 179.96875 C 160.070312 179.648438 159.808594 179.386719 159.488281 179.386719 " fill-opacity="1" fill-rule="nonzero"/><g clip-path="url(#5f7fbb47c0)"><path fill="#eceff1" d="M 150.980469 171.074219 C 151.089844 171.074219 151.175781 170.988281 151.175781 170.878906 C 151.175781 170.769531 151.089844 170.6875 150.980469 170.6875 C 150.875 170.6875 150.789062 170.773438 150.789062 170.878906 C 150.789062 170.988281 150.875 171.074219 150.980469 171.074219 " fill-opacity="1" fill-rule="nonzero"/></g><path fill="#eceff1" d="M 151.753906 171.074219 C 151.863281 171.074219 151.949219 170.988281 151.949219 170.878906 C 151.949219 170.769531 151.863281 170.6875 151.753906 170.6875 C 151.648438 170.6875 151.5625 170.773438 151.5625 170.878906 C 151.5625 170.988281 151.648438 171.074219 151.753906 171.074219 " fill-opacity="1" fill-rule="nonzero"/><path fill="#eceff1" d="M 152.527344 171.074219 C 152.636719 171.074219 152.722656 170.988281 152.722656 170.878906 C 152.722656 170.769531 152.636719 170.6875 152.527344 170.6875 C 152.421875 170.6875 152.335938 170.773438 152.335938 170.878906 C 152.335938 170.988281 152.421875 171.074219 152.527344 171.074219 " fill-opacity="1" fill-rule="nonzero"/><path fill="#eceff1" d="M 154.074219 171.074219 L 159.875 171.074219 C 159.984375 171.074219 160.070312 170.988281 160.070312 170.878906 C 160.070312 170.773438 159.984375 170.6875 159.875 170.6875 L 154.074219 170.6875 C 153.96875 170.6875 153.882812 170.773438 153.882812 170.878906 C 153.882812 170.988281 153.96875 171.074219 154.074219 171.074219 " fill-opacity="1" fill-rule="nonzero"/><g clip-path="url(#46725f8e75)"><path fill="#eceff1" d="M 160.84375 181.128906 L 150.789062 181.128906 C 150.574219 181.128906 150.402344 180.957031 150.402344 180.742188 L 150.402344 171.847656 L 161.230469 171.847656 L 161.230469 180.742188 C 161.230469 180.957031 161.058594 181.128906 160.84375 181.128906 Z M 150.789062 170.300781 L 160.84375 170.300781 C 161.058594 170.300781 161.230469 170.472656 161.230469 170.6875 L 161.230469 171.460938 L 150.402344 171.460938 L 150.402344 170.6875 C 150.402344 170.472656 150.574219 170.300781 150.789062 170.300781 Z M 160.84375 169.914062 L 150.789062 169.914062 C 150.363281 169.914062 150.015625 170.261719 150.015625 170.6875 L 150.015625 180.742188 C 150.015625 181.167969 150.363281 181.515625 150.789062 181.515625 L 160.84375 181.515625 C 161.269531 181.515625 161.617188 181.167969 161.617188 180.742188 L 161.617188 170.6875 C 161.617188 170.261719 161.269531 169.914062 160.84375 169.914062 " fill-opacity="1" fill-rule="nonzero"/></g><path fill="#eceff1" d="M 151.753906 173.394531 L 151.753906 172.8125 L 159.875 172.8125 L 159.875 173.394531 Z M 159.875 172.425781 L 151.753906 172.425781 C 151.542969 172.425781 151.367188 172.601562 151.367188 172.8125 L 151.367188 173.394531 C 151.367188 173.609375 151.542969 173.78125 151.753906 173.78125 L 159.875 173.78125 C 160.089844 173.78125 160.261719 173.609375 160.261719 173.394531 L 160.261719 172.8125 C 160.261719 172.601562 160.089844 172.425781 159.875 172.425781 " fill-opacity="1" fill-rule="nonzero"/><path fill="#eceff1" d="M 151.753906 178.613281 L 151.753906 174.746094 L 159.875 174.746094 L 159.878906 178.613281 Z M 159.875 174.359375 L 151.753906 174.359375 C 151.542969 174.359375 151.367188 174.535156 151.367188 174.746094 L 151.367188 178.613281 C 151.367188 178.828125 151.542969 179 151.753906 179 L 159.875 179 C 160.089844 179 160.261719 178.828125 160.261719 178.613281 L 160.261719 174.746094 C 160.261719 174.535156 160.089844 174.359375 159.875 174.359375 " fill-opacity="1" fill-rule="nonzero"/><path fill="#eceff1" d="M 156.203125 180.160156 C 156.097656 180.160156 156.007812 180.074219 156.007812 179.96875 C 156.007812 179.863281 156.097656 179.773438 156.203125 179.773438 C 156.308594 179.773438 156.394531 179.863281 156.394531 179.96875 C 156.394531 180.074219 156.308594 180.160156 156.203125 180.160156 Z M 156.203125 179.386719 C 155.882812 179.386719 155.621094 179.648438 155.621094 179.96875 C 155.621094 180.289062 155.882812 180.546875 156.203125 180.546875 C 156.523438 180.546875 156.78125 180.289062 156.78125 179.96875 C 156.78125 179.648438 156.523438 179.386719 156.203125 179.386719 " fill-opacity="1" fill-rule="nonzero"/><path fill="#eceff1" d="M 159.488281 180.160156 L 157.941406 180.160156 C 157.835938 180.160156 157.75 180.074219 157.75 179.96875 C 157.75 179.863281 157.835938 179.773438 157.941406 179.773438 L 159.488281 179.773438 C 159.597656 179.773438 159.683594 179.863281 159.683594 179.96875 C 159.683594 180.074219 159.597656 180.160156 159.488281 180.160156 Z M 159.488281 179.386719 L 157.941406 179.386719 C 157.625 179.386719 157.363281 179.648438 157.363281 179.96875 C 157.363281 180.289062 157.625 180.546875 157.941406 180.546875 L 159.488281 180.546875 C 159.808594 180.546875 160.070312 180.289062 160.070312 179.96875 C 160.070312 179.648438 159.808594 179.386719 159.488281 179.386719 " fill-opacity="1" fill-rule="nonzero"/><g clip-path="url(#97835eb328)"><path fill="#eceff1" d="M 150.980469 171.074219 C 151.089844 171.074219 151.175781 170.988281 151.175781 170.878906 C 151.175781 170.769531 151.089844 170.6875 150.980469 170.6875 C 150.875 170.6875 150.789062 170.773438 150.789062 170.878906 C 150.789062 170.988281 150.875 171.074219 150.980469 171.074219 " fill-opacity="1" fill-rule="nonzero"/></g><path fill="#eceff1" d="M 151.753906 171.074219 C 151.863281 171.074219 151.949219 170.988281 151.949219 170.878906 C 151.949219 170.769531 151.863281 170.6875 151.753906 170.6875 C 151.648438 170.6875 151.5625 170.773438 151.5625 170.878906 C 151.5625 170.988281 151.648438 171.074219 151.753906 171.074219 " fill-opacity="1" fill-rule="nonzero"/><path fill="#eceff1" d="M 152.527344 171.074219 C 152.636719 171.074219 152.722656 170.988281 152.722656 170.878906 C 152.722656 170.769531 152.636719 170.6875 152.527344 170.6875 C 152.421875 170.6875 152.335938 170.773438 152.335938 170.878906 C 152.335938 170.988281 152.421875 171.074219 152.527344 171.074219 " fill-opacity="1" fill-rule="nonzero"/><path fill="#eceff1" d="M 154.074219 171.074219 L 159.875 171.074219 C 159.984375 171.074219 160.070312 170.988281 160.070312 170.878906 C 160.070312 170.773438 159.984375 170.6875 159.875 170.6875 L 154.074219 170.6875 C 153.96875 170.6875 153.882812 170.773438 153.882812 170.878906 C 153.882812 170.988281 153.96875 171.074219 154.074219 171.074219 " fill-opacity="1" fill-rule="nonzero"/><g clip-path="url(#9825855bc7)"><path fill="#eceff1" d="M 160.84375 181.128906 L 150.789062 181.128906 C 150.574219 181.128906 150.402344 180.957031 150.402344 180.742188 L 150.402344 171.847656 L 161.230469 171.847656 L 161.230469 180.742188 C 161.230469 180.957031 161.058594 181.128906 160.84375 181.128906 Z M 150.789062 170.300781 L 160.84375 170.300781 C 161.058594 170.300781 161.230469 170.472656 161.230469 170.6875 L 161.230469 171.460938 L 150.402344 171.460938 L 150.402344 170.6875 C 150.402344 170.472656 150.574219 170.300781 150.789062 170.300781 Z M 160.84375 169.914062 L 150.789062 169.914062 C 150.363281 169.914062 150.015625 170.261719 150.015625 170.6875 L 150.015625 180.742188 C 150.015625 181.167969 150.363281 181.515625 150.789062 181.515625 L 160.84375 181.515625 C 161.269531 181.515625 161.617188 181.167969 161.617188 180.742188 L 161.617188 170.6875 C 161.617188 170.261719 161.269531 169.914062 160.84375 169.914062 " fill-opacity="1" fill-rule="nonzero"/></g><path fill="#eceff1" d="M 151.753906 173.394531 L 151.753906 172.8125 L 159.875 172.8125 L 159.875 173.394531 Z M 159.875 172.425781 L 151.753906 172.425781 C 151.542969 172.425781 151.367188 172.601562 151.367188 172.8125 L 151.367188 173.394531 C 151.367188 173.609375 151.542969 173.78125 151.753906 173.78125 L 159.875 173.78125 C 160.089844 173.78125 160.261719 173.609375 160.261719 173.394531 L 160.261719 172.8125 C 160.261719 172.601562 160.089844 172.425781 159.875 172.425781 " fill-opacity="1" fill-rule="nonzero"/><path fill="#eceff1" d="M 151.753906 178.613281 L 151.753906 174.746094 L 159.875 174.746094 L 159.878906 178.613281 Z M 159.875 174.359375 L 151.753906 174.359375 C 151.542969 174.359375 151.367188 174.535156 151.367188 174.746094 L 151.367188 178.613281 C 151.367188 178.828125 151.542969 179 151.753906 179 L 159.875 179 C 160.089844 179 160.261719 178.828125 160.261719 178.613281 L 160.261719 174.746094 C 160.261719 174.535156 160.089844 174.359375 159.875 174.359375 " fill-opacity="1" fill-rule="nonzero"/><path fill="#eceff1" d="M 156.203125 180.160156 C 156.097656 180.160156 156.007812 180.074219 156.007812 179.96875 C 156.007812 179.863281 156.097656 179.773438 156.203125 179.773438 C 156.308594 179.773438 156.394531 179.863281 156.394531 179.96875 C 156.394531 180.074219 156.308594 180.160156 156.203125 180.160156 Z M 156.203125 179.386719 C 155.882812 179.386719 155.621094 179.648438 155.621094 179.96875 C 155.621094 180.289062 155.882812 180.546875 156.203125 180.546875 C 156.523438 180.546875 156.78125 180.289062 156.78125 179.96875 C 156.78125 179.648438 156.523438 179.386719 156.203125 179.386719 " fill-opacity="1" fill-rule="nonzero"/><path fill="#eceff1" d="M 159.488281 180.160156 L 157.941406 180.160156 C 157.835938 180.160156 157.75 180.074219 157.75 179.96875 C 157.75 179.863281 157.835938 179.773438 157.941406 179.773438 L 159.488281 179.773438 C 159.597656 179.773438 159.683594 179.863281 159.683594 179.96875 C 159.683594 180.074219 159.597656 180.160156 159.488281 180.160156 Z M 159.488281 179.386719 L 157.941406 179.386719 C 157.625 179.386719 157.363281 179.648438 157.363281 179.96875 C 157.363281 180.289062 157.625 180.546875 157.941406 180.546875 L 159.488281 180.546875 C 159.808594 180.546875 160.070312 180.289062 160.070312 179.96875 C 160.070312 179.648438 159.808594 179.386719 159.488281 179.386719 " fill-opacity="1" fill-rule="nonzero"/><g clip-path="url(#83fb284ad9)"><path fill="#eceff1" d="M 150.980469 171.074219 C 151.089844 171.074219 151.175781 170.988281 151.175781 170.878906 C 151.175781 170.769531 151.089844 170.6875 150.980469 170.6875 C 150.875 170.6875 150.789062 170.773438 150.789062 170.878906 C 150.789062 170.988281 150.875 171.074219 150.980469 171.074219 " fill-opacity="1" fill-rule="nonzero"/></g><path fill="#eceff1" d="M 151.753906 171.074219 C 151.863281 171.074219 151.949219 170.988281 151.949219 170.878906 C 151.949219 170.769531 151.863281 170.6875 151.753906 170.6875 C 151.648438 170.6875 151.5625 170.773438 151.5625 170.878906 C 151.5625 170.988281 151.648438 171.074219 151.753906 171.074219 " fill-opacity="1" fill-rule="nonzero"/><path fill="#eceff1" d="M 152.527344 171.074219 C 152.636719 171.074219 152.722656 170.988281 152.722656 170.878906 C 152.722656 170.769531 152.636719 170.6875 152.527344 170.6875 C 152.421875 170.6875 152.335938 170.773438 152.335938 170.878906 C 152.335938 170.988281 152.421875 171.074219 152.527344 171.074219 " fill-opacity="1" fill-rule="nonzero"/><path fill="#eceff1" d="M 154.074219 171.074219 L 159.875 171.074219 C 159.984375 171.074219 160.070312 170.988281 160.070312 170.878906 C 160.070312 170.773438 159.984375 170.6875 159.875 170.6875 L 154.074219 170.6875 C 153.96875 170.6875 153.882812 170.773438 153.882812 170.878906 C 153.882812 170.988281 153.96875 171.074219 154.074219 171.074219 " fill-opacity="1" fill-rule="nonzero"/></svg>